<svg xmlns="http://www.w3.org/2000/svg" xmlns:xlink="http://www.w3.org/1999/xlink" width="96.501" height="96.5" viewBox="0 0 96.501 96.5">
  <defs>
    <filter id="Trazado_873160" x="0" y="0" width="96.501" height="96.5" filterUnits="userSpaceOnUse">
      <feOffset dy="3" input="SourceAlpha"/>
      <feGaussianBlur stdDeviation="3" result="blur"/>
      <feFlood flood-opacity="0.161"/>
      <feComposite operator="in" in2="blur"/>
      <feComposite in="SourceGraphic"/>
    </filter>
  </defs>
  <g id="Grupo_1099138" data-name="Grupo 1099138" transform="translate(-1118.333 -483)">
    <g transform="matrix(1, 0, 0, 1, 1118.33, 483)" filter="url(#Trazado_873160)">
      <path id="Trazado_873160-2" data-name="Trazado 873160" d="M313.261,134.345A39.251,39.251,0,1,1,274.011,95.1,39.251,39.251,0,0,1,313.261,134.345Z" transform="translate(-225.76 -89.1)" fill="#fff"/>
    </g>
    <g id="_21-Payment-terminal" data-name="21-Payment-terminal" transform="translate(1138.333 500.006)">
      <path id="Trazado_873297" data-name="Trazado 873297" d="M52.869,14H38.875a.875.875,0,0,0-.875.875V51.609a.875.875,0,0,0,.875.875H52.869a2.624,2.624,0,0,0,2.624-2.624V16.624A2.624,2.624,0,0,0,52.869,14Z" transform="translate(-4.012 -1.505)" fill="#ff725d"/>
      <path id="Trazado_873298" data-name="Trazado 873298" d="M54.5,14H51a2.624,2.624,0,0,1,2.624,2.624V49.86A2.624,2.624,0,0,1,51,52.483h3.5a2.624,2.624,0,0,0,2.624-2.624V16.624A2.624,2.624,0,0,0,54.5,14Z" transform="translate(-5.642 -1.505)" fill="#fc5e47"/>
      <rect id="Rectángulo_401190" data-name="Rectángulo 401190" width="30" height="45" rx="3" transform="translate(6 9.471)" fill="#565d69"/>
      <path id="Trazado_873299" data-name="Trazado 873299" d="M36.5,10H33a2.624,2.624,0,0,1,2.624,2.624V52.857A2.624,2.624,0,0,1,33,55.48h3.5a2.624,2.624,0,0,0,2.624-2.624V12.624A2.624,2.624,0,0,0,36.5,10Z" transform="translate(-3.385 -1.004)" fill="#4e5460"/>
      <rect id="Rectángulo_401191" data-name="Rectángulo 401191" width="21" height="11" rx="1" transform="translate(10 18.471)" fill="#53bced"/>
      <path id="Trazado_873300" data-name="Trazado 873300" d="M30.875,30.621V21.875A.875.875,0,0,0,30,21h3.5a.875.875,0,0,1,.875.875v8.746a.875.875,0,0,1-.875.875H30A.875.875,0,0,0,30.875,30.621Z" transform="translate(-3.009 -2.383)" fill="#0d66bf"/>
      <path id="Trazado_873301" data-name="Trazado 873301" d="M29.95,2.069A.875.875,0,0,0,29,2.253l-2,2.012-2-2.012a.875.875,0,0,0-1.242,0l-2,2.012-2-2.012a.875.875,0,0,0-1.242,0l-2,2.012-2-2.012a.88.88,0,0,0-1.5.621V15.119H30.492V2.874a.875.875,0,0,0-.542-.8Z" transform="translate(-0.878)" fill="#e7eaef"/>
      <path id="Trazado_873302" data-name="Trazado 873302" d="M32.5,2.875V15.12H29V4.265l2-2.012a.88.88,0,0,1,1.5.621Z" transform="translate(-2.884 -0.001)" fill="#d8dbe0"/>
      <path id="Trazado_873303" data-name="Trazado 873303" d="M31.116,17.749H11.875a.875.875,0,1,1,0-1.749H31.116a.875.875,0,0,1,0,1.749Z" transform="translate(-0.627 -1.756)" fill="#4e5460"/>
      <g id="Grupo_1099116" data-name="Grupo 1099116" transform="translate(10.373 36.11)">
        <rect id="Rectángulo_401192" data-name="Rectángulo 401192" width="6" height="5" rx="1" transform="translate(-0.373 8.361)" fill="#e7eaef"/>
        <rect id="Rectángulo_401193" data-name="Rectángulo 401193" width="5" height="5" rx="1" transform="translate(7.627 8.361)" fill="#e7eaef"/>
        <rect id="Rectángulo_401194" data-name="Rectángulo 401194" width="5" height="5" rx="1" transform="translate(15.627 8.361)" fill="#e7eaef"/>
        <rect id="Rectángulo_401195" data-name="Rectángulo 401195" width="6" height="5" rx="1" transform="translate(-0.373 0.361)" fill="#e7eaef"/>
        <rect id="Rectángulo_401196" data-name="Rectángulo 401196" width="5" height="5" rx="1" transform="translate(7.627 0.361)" fill="#e7eaef"/>
        <rect id="Rectángulo_401197" data-name="Rectángulo 401197" width="5" height="5" rx="1" transform="translate(15.627 0.361)" fill="#e7eaef"/>
      </g>
      <path id="Trazado_873304" data-name="Trazado 873304" d="M33.749,41H32a.875.875,0,0,1,.875.875v3.5a.875.875,0,0,1-.875.875h1.749a.875.875,0,0,0,.875-.875v-3.5A.875.875,0,0,0,33.749,41Z" transform="translate(-3.26 -4.89)" fill="#d8dbe0"/>
      <path id="Trazado_873305" data-name="Trazado 873305" d="M33.749,50H32a.875.875,0,0,1,.875.875v3.5a.875.875,0,0,1-.875.875h1.749a.875.875,0,0,0,.875-.875v-3.5A.875.875,0,0,0,33.749,50Z" transform="translate(-3.26 -6.019)" fill="#d8dbe0"/>
      <path id="Trazado_873306" data-name="Trazado 873306" d="M24.749,41H23a.875.875,0,0,1,.875.875v3.5a.875.875,0,0,1-.875.875h1.749a.875.875,0,0,0,.875-.875v-3.5A.875.875,0,0,0,24.749,41Z" transform="translate(-2.131 -4.89)" fill="#d8dbe0"/>
      <path id="Trazado_873307" data-name="Trazado 873307" d="M24.749,50H23a.875.875,0,0,1,.875.875v3.5a.875.875,0,0,1-.875.875h1.749a.875.875,0,0,0,.875-.875v-3.5A.875.875,0,0,0,24.749,50Z" transform="translate(-2.131 -6.019)" fill="#d8dbe0"/>
      <path id="Trazado_873308" data-name="Trazado 873308" d="M15.749,41H14a.875.875,0,0,1,.875.875v3.5a.875.875,0,0,1-.875.875h1.749a.875.875,0,0,0,.875-.875v-3.5A.875.875,0,0,0,15.749,41Z" transform="translate(-1.003 -4.89)" fill="#d8dbe0"/>
      <path id="Trazado_873309" data-name="Trazado 873309" d="M15.749,50H14a.875.875,0,0,1,.875.875v3.5a.875.875,0,0,1-.875.875h1.749a.875.875,0,0,0,.875-.875v-3.5A.875.875,0,0,0,15.749,50Z" transform="translate(-1.003 -6.019)" fill="#d8dbe0"/>
      <path id="Trazado_873310" data-name="Trazado 873310" d="M15.373,37.749h-3.5a.875.875,0,0,1,0-1.749h3.5a.875.875,0,0,1,0,1.749Z" transform="translate(-0.627 -4.264)" fill="#ff725d"/>
      <path id="Trazado_873311" data-name="Trazado 873311" d="M24.373,37.749h-3.5a.875.875,0,0,1,0-1.749h3.5a.875.875,0,1,1,0,1.749Z" transform="translate(-1.755 -4.264)" fill="#ffdc39"/>
      <path id="Trazado_873312" data-name="Trazado 873312" d="M33.373,37.749h-3.5a.875.875,0,0,1,0-1.749h3.5a.875.875,0,1,1,0,1.749Z" transform="translate(-2.884 -4.264)" fill="#59e78b"/>
      <rect id="Rectángulo_401198" data-name="Rectángulo 401198" width="7" height="9" rx="3" transform="translate(40 16.471)" fill="#ffdc39"/>
      <path id="Trazado_873313" data-name="Trazado 873313" d="M50.875,50.994A.875.875,0,0,1,50,50.119V37.875a.875.875,0,1,1,1.749,0V50.119A.875.875,0,0,1,50.875,50.994Z" transform="translate(-5.517 -4.389)" fill="#e7eaef"/>
    </g>
  </g>
</svg>
