<svg xmlns="http://www.w3.org/2000/svg" xmlns:xlink="http://www.w3.org/1999/xlink" width="400" height="337.281" viewBox="0 0 400 337.281">
  <defs>
    <clipPath id="clip-path">
      <rect id="Rectángulo_401262" data-name="Rectángulo 401262" width="400" height="337.281" fill="none"/>
    </clipPath>
    <clipPath id="clip-path-2">
      <rect id="Rectángulo_401261" data-name="Rectángulo 401261" width="399.999" height="393.282" fill="none"/>
    </clipPath>
    <clipPath id="clip-path-3">
      <rect id="Rectángulo_401245" data-name="Rectángulo 401245" width="12.431" height="13.135" fill="none"/>
    </clipPath>
    <clipPath id="clip-path-4">
      <rect id="Rectángulo_401246" data-name="Rectángulo 401246" width="73.644" height="11.828" fill="none"/>
    </clipPath>
    <clipPath id="clip-path-5">
      <rect id="Rectángulo_401248" data-name="Rectángulo 401248" width="99.358" height="67.141" fill="none"/>
    </clipPath>
    <clipPath id="clip-path-6">
      <rect id="Rectángulo_401249" data-name="Rectángulo 401249" width="10.285" height="56.476" fill="none"/>
    </clipPath>
    <clipPath id="clip-path-7">
      <rect id="Rectángulo_401252" data-name="Rectángulo 401252" width="39.129" height="13.045" fill="none"/>
    </clipPath>
    <clipPath id="clip-path-8">
      <rect id="Rectángulo_401260" data-name="Rectángulo 401260" width="301.902" height="11.089" fill="none"/>
    </clipPath>
  </defs>
  <g id="Grupo_1099227" data-name="Grupo 1099227" transform="translate(-600 -10316.412)">
    <g id="Grupo_1099223" data-name="Grupo 1099223" transform="translate(600 10316.412)">
      <g id="Grupo_1099222" data-name="Grupo 1099222" clip-path="url(#clip-path)">
        <g id="Grupo_1099221" data-name="Grupo 1099221" transform="translate(0 0)">
          <g id="Grupo_1099220" data-name="Grupo 1099220" clip-path="url(#clip-path-2)">
            <path id="Trazado_873579" data-name="Trazado 873579" d="M527.329,403.958q5.48,10.673,11.119,21.239c3.764,7.024,7.591,14.034,11.562,20.782.994,1.678,2,3.337,3.016,4.932.99,1.569,2.074,3.175,2.915,4.261a41.787,41.787,0,0,0,7.486,7.134c5.835,4.391,12.584,8.03,19.478,9.478l.166.034a4.353,4.353,0,0,1-1.146,8.605,52.045,52.045,0,0,1-13.076-2.582,73.388,73.388,0,0,1-12.016-5.262,54.14,54.14,0,0,1-11.2-7.992,66.108,66.108,0,0,1-4.467-5.255c-1.313-1.682-2.559-3.352-3.778-5.024-4.855-6.682-9.4-13.394-13.906-20.144s-8.91-13.533-13.276-20.34a9.892,9.892,0,1,1,16.645-10.695c.17.266.329.553.475.828" transform="translate(-357.494 -280.142)" fill="#f3bba3"/>
            <path id="Trazado_873580" data-name="Trazado 873580" d="M523.649,439.194c3.463,5.545,6.9,11.119,10.883,16.305.565.733,1.292,1.531,2.213,1.477a2.95,2.95,0,0,0,1.558-.794q4.623-3.71,9.245-7.416c1.088-.87,2.275-1.959,2.206-3.349a4.635,4.635,0,0,0-1.1-2.335c-5.017-6.957-8.743-15.064-12.767-22.615q-5.578-10.5-10.991-21.13c-.173-.335-.367-.68-.575-1a11.432,11.432,0,1,0-19.208,12.4q6.55,10.148,13.269,20.217c1.811,2.705,3.542,5.468,5.27,8.24" transform="translate(-353.728 -276.288)" fill="#eae5df"/>
            <path id="Trazado_873597" data-name="Trazado 873597" d="M413.913,406.864c.159-6.89-.419-13.878-3.982-19.56-2.071-3.309-3.7-3.515-7.48-4.344a87.1,87.1,0,0,0-19.025-2.252,137.363,137.363,0,0,0-15.984,1.412c-3.626.48-11.718-.015-18.374,7.733-3.868,4.493-3.054,14.12-1.8,20.794,1.859,9.873,3.452,20.6,3.373,31.011-.08,11.066-2.867,29.608-6,40.206-.72,2.44-1.229,3.374,1.125,5.09,2.213,1.613,6.825,1.382,9.422,1.527,19.734,1.118,39.541,2.233,58.507-2.495,4.813-1.2,1.839-7.079,1.378-10.841,0-5.138-1.136-10.488-1.507-15.632-.374-5.189-.64-10.388-.762-15.59-.2-8.718.132-17.437.551-26.143.163-3.46.467-7.174.557-10.916" transform="translate(-241.806 -267.579)" fill="#eae5df"/>
            <path id="Trazado_873598" data-name="Trazado 873598" d="M455.472,342.274a7.6,7.6,0,0,0-1.52-3.22,2.686,2.686,0,0,0-.523-.431c-1.288-.8-3.165-.892-4.546-1.722-2.507-1.5-3.366-4.594-3.508-7.338-.09-1.706-.281-3.4-.239-5.123.014-.472.263-5.26.7-5.258l-5.066-.029c-.384,0-.765-.01-1.146-.029-.388.019-.769.029-1.153.029l-5.066.677a21.7,21.7,0,0,1-1.022,13.533c-.959,2.394-2.86,3.136-4.772,4.527-1.87,1.356-1.441,4.351-.89,6.381,1.918,7.114,8.425,11.036,15.613,11.431,4.384.24,9-1.522,11.559-5.095a10.328,10.328,0,0,0,1.579-8.333" transform="translate(-299.588 -224.295)" fill="#f3bba3"/>
            <g id="Grupo_1099204" data-name="Grupo 1099204" transform="translate(133.816 94.828)" style="mix-blend-mode: multiply;isolation: isolate">
              <g id="Grupo_1099203" data-name="Grupo 1099203">
                <g id="Grupo_1099202" data-name="Grupo 1099202" clip-path="url(#clip-path-3)">
                  <path id="Trazado_873599" data-name="Trazado 873599" d="M450.565,329.024c.7.461,1.4.918,2.129,1.331a12.428,12.428,0,0,0,4.218,1.41,42.336,42.336,0,0,0,5.786.493,13.729,13.729,0,0,1-.4-2.695c-.09-1.706-.28-3.4-.236-5.123.01-.472.26-5.261.7-5.257l-5.066-.029c-.384,0-.765-.01-1.146-.029-.388.019-.769.029-1.153.029l-5.066.677a20.537,20.537,0,0,1,.239,9.194" transform="translate(-450.326 -319.123)" fill="#f7e1e0"/>
                </g>
              </g>
            </g>
            <path id="Trazado_873600" data-name="Trazado 873600" d="M393.076,109.076c2.077-1.45,3.484-1.747,5.274-3.491,4.82-4.707,4.512-11.71,3.823-18.015a62.206,62.206,0,0,0-5.232-19.031,5.558,5.558,0,0,0-1.354-2.034,5.678,5.678,0,0,0-2.78-.968,276.042,276.042,0,0,0-35.781-2.865c-11.888-.307-23.835-.232-35.591,1.551a6.585,6.585,0,0,0-2.542.757,6.467,6.467,0,0,0-1.863,2.09,70.339,70.339,0,0,0-8.806,19.639,38.853,38.853,0,0,0-1.139,13.729c.976,8.226,12.528,8.381,19.769,9.879,7.815,1.619,15.828,1.878,23.783,2.036,7.992.161,15.946.784,23.948.393a78.691,78.691,0,0,0,16.129-2.534,7.418,7.418,0,0,0,2.362-1.135" transform="translate(-215.696 -43.95)" fill="#ffdc39"/>
            <path id="Trazado_873601" data-name="Trazado 873601" d="M411.736,76.972c.076,17.957-8.9,34.686-25.244,43.135a93.088,93.088,0,0,1-13.089,5.55,9.927,9.927,0,0,1-2.874.645,10.554,10.554,0,0,1-3.47-.686,100.208,100.208,0,0,1-14.914-5.594,42.346,42.346,0,0,1-21.49-24.816,56.879,56.879,0,0,1-2.947-18.234c-.4-31.614,18.813-44.117,42.014-44.117s41.861,9.1,42.014,44.117" transform="translate(-230.325 -23.092)" fill="#f3bba3"/>
            <path id="Trazado_873602" data-name="Trazado 873602" d="M587.343,189.958c-.984,5.246,1.707,10.151,6.008,10.958s8.577-2.8,9.557-8.043-1.7-10.151-6-10.957-8.577,2.8-9.561,8.042" transform="translate(-412.67 -127.78)" fill="#f3bba3"/>
            <path id="Trazado_873603" data-name="Trazado 873603" d="M612.9,196.172a4.557,4.557,0,0,1,3.892,1.667,6.062,6.062,0,0,1,.679,5" transform="translate(-430.775 -137.854)" fill="none" stroke="#ed977d" stroke-linecap="round" stroke-linejoin="round" stroke-width="3.587"/>
            <path id="Trazado_873604" data-name="Trazado 873604" d="M617.5,200.958a6.849,6.849,0,0,0-2.819,3.426" transform="translate(-432.028 -141.243)" fill="none" stroke="#ed977d" stroke-linecap="round" stroke-linejoin="round" stroke-width="3.587"/>
            <path id="Trazado_873605" data-name="Trazado 873605" d="M313.491,189.958c.984,5.246-1.707,10.151-6,10.958s-8.577-2.8-9.564-8.043,1.707-10.151,6-10.957,8.577,2.8,9.561,8.042" transform="translate(-209.255 -127.78)" fill="#f3bba3"/>
            <path id="Trazado_873606" data-name="Trazado 873606" d="M314.307,196.172a4.559,4.559,0,0,0-3.9,1.667,6.061,6.061,0,0,0-.675,5" transform="translate(-217.519 -137.854)" fill="none" stroke="#ed977d" stroke-linecap="round" stroke-linejoin="round" stroke-width="3.587"/>
            <path id="Trazado_873607" data-name="Trazado 873607" d="M314.45,200.958a6.845,6.845,0,0,1,2.815,3.426" transform="translate(-221.01 -141.243)" fill="none" stroke="#ed977d" stroke-linecap="round" stroke-linejoin="round" stroke-width="3.587"/>
            <path id="Trazado_873608" data-name="Trazado 873608" d="M469.041,242.467a4.945,4.945,0,0,1,3.369-.291,2.683,2.683,0,0,1,2.022,3.491c-.651,2.028-2.881,2.425-4.609,2.314" transform="translate(-329.664 -170.089)" fill="none" stroke="#ed977d" stroke-linecap="round" stroke-linejoin="round" stroke-width="3.946"/>
            <path id="Trazado_873609" data-name="Trazado 873609" d="M406.7,228.309c0,2.437-1.278,4.414-2.853,4.414S401,230.746,401,228.309s1.278-4.414,2.854-4.414,2.853,1.976,2.853,4.414" transform="translate(-281.84 -157.364)" fill="#783b2d"/>
            <path id="Trazado_873610" data-name="Trazado 873610" d="M406.21,228.391a.948.948,0,1,1-.928-1.143,1.052,1.052,0,0,1,.928,1.143" transform="translate(-284.199 -159.72)" fill="#fff"/>
            <path id="Trazado_873611" data-name="Trazado 873611" d="M523.587,228.309c0,2.437-1.278,4.414-2.853,4.414s-2.853-1.977-2.853-4.414,1.278-4.414,2.853-4.414,2.853,1.976,2.853,4.414" transform="translate(-363.991 -157.364)" fill="#783b2d"/>
            <path id="Trazado_873612" data-name="Trazado 873612" d="M523.091,228.391a.948.948,0,1,1-.928-1.143,1.052,1.052,0,0,1,.928,1.143" transform="translate(-366.349 -159.72)" fill="#fff"/>
            <path id="Trazado_873613" data-name="Trazado 873613" d="M517.7,196.463l.467.047a11.491,11.491,0,0,1,1.288.175,21.453,21.453,0,0,1,3.84,1.075c.654.283,1.319.523,1.911.845a13.627,13.627,0,0,1,1.6.9,8.953,8.953,0,0,1,1.07.764l.393.308a.651.651,0,0,1-.731,1.073l-.083-.048-.377-.223a7.5,7.5,0,0,0-1.013-.546,12.243,12.243,0,0,0-1.536-.623c-.563-.224-1.209-.366-1.83-.549a19.544,19.544,0,0,0-3.453-.525,9.194,9.194,0,0,0-1.167-.013l-.467.011H517.6a1.337,1.337,0,0,1-.064-2.673,1.462,1.462,0,0,1,.166.007" transform="translate(-362.83 -138.079)" fill="#783b2d"/>
            <path id="Trazado_873614" data-name="Trazado 873614" d="M391.271,199.53l-.466-.026a9.238,9.238,0,0,0-1.165-.023,19.533,19.533,0,0,0-3.466.42c-.627.163-1.276.286-1.846.492a12.123,12.123,0,0,0-1.551.576,7.642,7.642,0,0,0-1.028.516l-.385.21-.083.047a.651.651,0,0,1-.7-1.094l.4-.3a8.913,8.913,0,0,1,1.091-.732,13.874,13.874,0,0,1,1.624-.847c.6-.3,1.271-.524,1.936-.787a21.361,21.361,0,0,1,3.87-.958,11.38,11.38,0,0,1,1.293-.135l.468-.033a1.337,1.337,0,1,1,.185,2.667,1.3,1.3,0,0,1-.159,0Z" transform="translate(-267.304 -138.361)" fill="#783b2d"/>
            <path id="Trazado_873615" data-name="Trazado 873615" d="M470.516,289.051a4.929,4.929,0,0,0-4.252-3.594,4.482,4.482,0,0,0-4.948,3.594" transform="translate(-324.234 -200.609)" fill="none" stroke="#ed977d" stroke-linecap="round" stroke-linejoin="round" stroke-width="3.946"/>
            <path id="Trazado_873616" data-name="Trazado 873616" d="M408.912,23.248a20.067,20.067,0,0,0-7.012-9.741c-3.276-2.484-6.108-5.754-4.547-10.221a14.478,14.478,0,0,0-7.531,4.832A6.467,6.467,0,0,1,390.9,3.5,15.963,15.963,0,0,1,394.247,0c-2.673-.074-5.2,1.11-7.7,2.078-5.842,2.268-9.651-.225-15.413-.933a42.886,42.886,0,0,0-10.731.319,63.788,63.788,0,0,0-10.71,2.509C332.855,9.769,325.41,22.09,322.83,38.78c-.88,5.706.056,15.613,2.182,21.188a24.1,24.1,0,0,0,2.393,5.086,29.81,29.81,0,0,1,1.305-7.721c.89-2.741,1.721-3.546,4.6-2.95a37.38,37.38,0,0,0,9.021.807,161.633,161.633,0,0,0,20.133-1.812,22.686,22.686,0,0,1-6.243,3.7,35.5,35.5,0,0,0,15.3-3.19c4.54-2,8.127-5.742,12.532-7.694a1.849,1.849,0,0,1,2.2.14q6.415,3.831,12.83,7.664a15.449,15.449,0,0,1,3.1,2.218c1.51,1.516,3.757,6.435,2.832,8.688.921-2.24,1.275-3.646,1.728-5.026a83.839,83.839,0,0,0,4.145-19.02,42.575,42.575,0,0,0-1.974-17.607" transform="translate(-226.669 0.001)" fill="#ffdc39"/>
            <path id="Trazado_873617" data-name="Trazado 873617" d="M401.2,24.589c-7.1-3.174-14.914-5.945-22.764-4.845a38.821,38.821,0,0,0-15.2,5.547c-5.423,3.4-10.063,8.186-16.053,10.443" transform="translate(-244.017 -13.704)" fill="none" stroke="#e3bb00" stroke-linecap="round" stroke-linejoin="round" stroke-width="2.213"/>
            <path id="Trazado_873618" data-name="Trazado 873618" d="M425.167,45.086a49.207,49.207,0,0,1,28.149-5.559" transform="translate(-298.828 -27.603)" fill="none" stroke="#e3bb00" stroke-linecap="round" stroke-linejoin="round" stroke-width="2.213"/>
            <path id="Trazado_873619" data-name="Trazado 873619" d="M552.3,52.31a16.822,16.822,0,0,1,15.5,12.18" transform="translate(-388.185 -36.766)" fill="none" stroke="#e3bb00" stroke-linecap="round" stroke-linejoin="round" stroke-width="2.213"/>
            <path id="Trazado_873620" data-name="Trazado 873620" d="M554.435,55.838A25.787,25.787,0,0,1,563.2,66.2a41.237,41.237,0,0,1,3.612,13.19" transform="translate(-389.683 -39.245)" fill="none" stroke="#e3bb00" stroke-linecap="round" stroke-linejoin="round" stroke-width="2.213"/>
            <path id="Trazado_873621" data-name="Trazado 873621" d="M340.53,109.453A44.187,44.187,0,0,1,356.088,93.63a69.454,69.454,0,0,1,20.777-8.211" transform="translate(-239.341 -60.036)" fill="none" stroke="#e3bb00" stroke-linecap="round" stroke-linejoin="round" stroke-width="2.213"/>
            <path id="Trazado_873622" data-name="Trazado 873622" d="M356.774,118.3a110.822,110.822,0,0,1,31.411-11.08" transform="translate(-250.758 -75.356)" fill="none" stroke="#e3bb00" stroke-linecap="round" stroke-linejoin="round" stroke-width="2.213"/>
            <path id="Trazado_873623" data-name="Trazado 873623" d="M430.178,152.7a66.5,66.5,0,0,0,27.391-6.983" transform="translate(-302.35 -102.414)" fill="none" stroke="#e3bb00" stroke-linecap="round" stroke-linejoin="round" stroke-width="2.213"/>
            <path id="Trazado_873624" data-name="Trazado 873624" d="M774.392,654.817a16.477,16.477,0,0,0-3.307-3.927c-.319-.29-.63-.582-.949-.876-1.437-1.331-2.393-2.578-4.238-3.252a26.9,26.9,0,0,0-8.477-1.712c-1.593-.147-5.641-.955-8.02-1.374-.9-.158-.325,3.348-.537,4.191-.277,1.09-2.213,4.586-.8,4.69,1.863.135,5.364.34,6.565.554,1.257.223,3.155.181,4.266.828,1.222.708,1.569,2.753,2.092,4.079a3.07,3.07,0,0,0,.724,1.232,1.045,1.045,0,0,0,1.316.12,1.188,1.188,0,0,0,.346-.654c.156-.7-.582-2.252-.8-2.945a29.128,29.128,0,0,0,2.936,3.2,1.511,1.511,0,0,0,1.711.115,1.3,1.3,0,0,0,.419-1.034c.021-1.371-1.617-3.865-2.569-4.852,1,1.033,2.867,3.154,3.875,4.178,1.195,1.212,2.261.05,1.991-.765a17.814,17.814,0,0,0-2.14-3.744c1.544,1.067,2.729,2.575,4.439,3.351.381.171.855.328,1.188.073.429-.329.232-1.007-.031-1.478" transform="translate(-525.415 -452.402)" fill="#f3bba3"/>
            <path id="Trazado_873625" data-name="Trazado 873625" d="M279.661,441.019a144.206,144.206,0,0,1,6.52-21.6c4.606-12,9.01-23.647,22.885-27.655-1.022,3.2-1.267,7.452-2.13,11.8-2.285,11.547-1.967,14.806-4.346,26.321-1.025,4.958-3.532,16.124-4.255,21.293-.8,5.755-1.527,12.043-3.144,17.731-2.275,8.017-7.76,12.162-14.942,6.391a11.292,11.292,0,0,1-3.629-6.172c-1.545-6.277.239-13.265,1.364-19.479.516-2.869,1.066-5.753,1.676-8.628" transform="translate(-193.999 -275.35)" fill="#eae5df"/>
            <path id="Trazado_873626" data-name="Trazado 873626" d="M370.3,436.361c-.222-5.727-.232-11.458-.371-17.187-.138-5.532-.377-11.067-1.032-16.563a97.459,97.459,0,0,1-.336-14.818c.045-1.645.776-3.437.36-5.08-.3-1.183-.845-1.04-1.925-.748-4.1,1.1-10.551.44-13.276,4.34-1.523,2.181-1.88,5.083-2.583,7.587-4.508,16.064-3.432,34.58-2.832,50.955.492,13.222-1.88,23.414-4.768,36.187a39.466,39.466,0,0,0-1.046,6.044c-.468,6.872,6.33,6.272,11.3,6.553,5.035.284,10.08.57,15.108.756,1.558-12.156,2.022-28.651,2.417-40.863.176-5.528-.783-11.212-1.008-16.809,0-.118-.01-.236-.01-.353" transform="translate(-240.703 -268.32)" fill="#ff725d"/>
            <path id="Trazado_873627" data-name="Trazado 873627" d="M536.415,474.947a332.649,332.649,0,0,1-2.652-57.247c.163-3.46.467-7.174.557-10.916.159-6.89-.571-14.661-4.135-20.342-2.393-3.822-8.893-5.277-13.131-5.814-3.04-.384-1.17,2.575-.741,4.518,1.565,7.133,1.222,14.578,1.371,21.837.159,7.672.239,15.347.19,23.022q-.031,4.264-.114,8.529c-.339,16.731.461,38.3.128,55.033,0,.211,13.726-2.325,14.931-2.438,4.73-.449,5.374-3.1,4.7-7.88q-.587-4.157-1.1-8.3" transform="translate(-362.214 -267.499)" fill="#ff725d"/>
            <path id="Trazado_873628" data-name="Trazado 873628" d="M367.485,643.429c.052-.548.1-1.1.145-1.646a7.217,7.217,0,0,0,.038-1.284c-.277-2.994-3.885-4.13-6.895-4.891a15.688,15.688,0,0,0-5.305-.763,18.342,18.342,0,0,0-4.037,1.374c-5.236,1.806-9.845,1.1-15.212.533-4.65-.493-9.339-.842-13.955-1.522-2.943-.433-5.876-.869-8.747-1.332s-5.7-.953-8.314-1.515a11.365,11.365,0,0,0-1.96-.241c-5.052-.163-9.312,3.06-9.509,7.2s3.733,7.632,8.782,7.8l.142,0c3.307.107,6.416.083,9.5.032s6.1-.142,9.107-.233c6.337-.191,12.677-.246,19.014-.089q4.976.122,9.948.419c3.006.185,5.9,1.007,8.934,1.009a15.921,15.921,0,0,0,6.08-1.122,3.529,3.529,0,0,0,1.8-1.135,2.587,2.587,0,0,0,.318-1.214c.038-.461.08-.923.121-1.383" transform="translate(-206.446 -444.296)" fill="#f1b29b"/>
            <g id="Grupo_1099207" data-name="Grupo 1099207" transform="translate(87.282 192.16)" style="mix-blend-mode: multiply;isolation: isolate">
              <g id="Grupo_1099206" data-name="Grupo 1099206">
                <g id="Grupo_1099205" data-name="Grupo 1099205" clip-path="url(#clip-path-4)">
                  <path id="Trazado_873629" data-name="Trazado 873629" d="M353.528,656.112c-9.727-.43-19.433-1.129-29.17-1.409-9.342-.27-28.1,3.238-29.762-7.783-.011-.09,0-.167,0-.251a6.378,6.378,0,0,0-.855,2.89c-.2,4.142,3.733,7.632,8.781,7.8l.142,0c3.307.107,6.417.083,9.5.032s6.1-.142,9.107-.233c6.337-.191,12.677-.246,19.014-.089q4.976.122,9.949.419c3.006.185,5.9,1.007,8.934,1.009a15.924,15.924,0,0,0,6.081-1.122,3.529,3.529,0,0,0,1.8-1.135,2.588,2.588,0,0,0,.319-1.214c0-.03,0-.062.007-.094-4.193,1.525-9.332,1.38-13.844,1.18" transform="translate(-293.728 -646.669)" fill="#f8edee"/>
                </g>
              </g>
            </g>
            <rect id="Rectángulo_401247" data-name="Rectángulo 401247" width="12.674" height="3.946" transform="translate(112.82 143.586)" fill="#f8edee"/>
            <path id="Trazado_873630" data-name="Trazado 873630" d="M882.046,598.315H751.721a4.231,4.231,0,0,1-4.228-4.232V567.141a4.23,4.23,0,0,1,4.228-4.23H882.046a4.231,4.231,0,0,1,4.231,4.23v26.942a4.231,4.231,0,0,1-4.231,4.232" transform="translate(-525.374 -395.64)" fill="#2a3449"/>
            <path id="Trazado_873631" data-name="Trazado 873631" d="M817.764,562.911H751.722a4.23,4.23,0,0,0-4.228,4.23v26.942a4.23,4.23,0,0,0,4.228,4.232h66.042Z" transform="translate(-525.374 -395.64)" fill="#1f2737"/>
            <path id="Trazado_873632" data-name="Trazado 873632" d="M919.183,340.435H829.65a4.967,4.967,0,0,1-4.966-4.968V277.294a4.967,4.967,0,0,1,4.966-4.969h89.534a4.973,4.973,0,0,1,4.973,4.969v58.173a4.973,4.973,0,0,1-4.973,4.968" transform="translate(-579.627 -191.403)" fill="#2a3449"/>
            <g id="Grupo_1099210" data-name="Grupo 1099210" transform="translate(245.057 80.921)" opacity="0.2" style="mix-blend-mode: screen;isolation: isolate">
              <g id="Grupo_1099209" data-name="Grupo 1099209">
                <g id="Grupo_1099208" data-name="Grupo 1099208" clip-path="url(#clip-path-5)">
                  <path id="Trazado_873633" data-name="Trazado 873633" d="M826.6,338.412V280.239a4.967,4.967,0,0,1,4.966-4.969H921.1a4.946,4.946,0,0,1,2.943.972,4.972,4.972,0,0,0-4.858-3.917H829.65a4.967,4.967,0,0,0-4.966,4.969v58.173a4.957,4.957,0,0,0,2.022,4,5.27,5.27,0,0,1-.111-1.052" transform="translate(-824.684 -272.324)" fill="#dff2fe"/>
                </g>
              </g>
            </g>
            <path id="Trazado_873634" data-name="Trazado 873634" d="M944.3,370.082H889.47a4.363,4.363,0,0,1-4.363-4.364V332.44a4.363,4.363,0,0,1,4.363-4.364H944.3a4.366,4.366,0,0,1,4.363,4.364v33.278a4.366,4.366,0,0,1-4.363,4.364" transform="translate(-622.095 -230.587)" fill="#1f2737"/>
            <path id="Trazado_873635" data-name="Trazado 873635" d="M991.453,429.329H971.31l-2.091-50.317a6.817,6.817,0,0,1,13.571,0Z" transform="translate(-681.213 -262.059)" fill="#1f2737"/>
            <g id="Grupo_1099213" data-name="Grupo 1099213" transform="translate(288.006 110.795)" opacity="0.2" style="mix-blend-mode: screen;isolation: isolate">
              <g id="Grupo_1099212" data-name="Grupo 1099212">
                <g id="Grupo_1099211" data-name="Grupo 1099211" clip-path="url(#clip-path-6)">
                  <path id="Trazado_873636" data-name="Trazado 873636" d="M971.782,390.158c-.436-8.546-1.776-15.711,7.722-16.362a6.95,6.95,0,0,0-3.5-.944,6.7,6.7,0,0,0-6.78,6.159l2.092,50.317h2.916c-.239-2.745-1.939-29.322-2.445-39.171" transform="translate(-969.219 -372.853)" fill="#dff2fe"/>
                </g>
              </g>
            </g>
            <rect id="Rectángulo_401250" data-name="Rectángulo 401250" width="33.877" height="7.377" transform="translate(317.076 174.726)" fill="#1f2737"/>
            <rect id="Rectángulo_401251" data-name="Rectángulo 401251" width="33.877" height="7.379" transform="translate(317.076 187.841)" fill="#1f2737"/>
            <path id="Trazado_873637" data-name="Trazado 873637" d="M655.266,477.6H615.031a2.4,2.4,0,0,1-2.4-2.4V462.055a2.4,2.4,0,0,1,2.4-2.4h40.234a2.4,2.4,0,0,1,2.4,2.4V475.2a2.4,2.4,0,0,1-2.4,2.4" transform="translate(-430.587 -323.066)" fill="#1f2737"/>
            <path id="Trazado_873638" data-name="Trazado 873638" d="M656.4,672.778H613.888a1.256,1.256,0,0,1-1.257-1.256v-3.214a1.256,1.256,0,0,1,1.257-1.257H656.4a1.256,1.256,0,0,1,1.257,1.257v3.214a1.256,1.256,0,0,1-1.257,1.256" transform="translate(-430.586 -468.834)" fill="#1f2737"/>
            <path id="Trazado_873639" data-name="Trazado 873639" d="M659.683,480.688H624.325a1.939,1.939,0,0,1-1.939-1.937v-9.543a1.938,1.938,0,0,1,1.939-1.937h35.358a1.938,1.938,0,0,1,1.936,1.937v9.543a1.938,1.938,0,0,1-1.936,1.937" transform="translate(-437.442 -328.42)" fill="#588876"/>
            <g id="Grupo_1099216" data-name="Grupo 1099216" transform="translate(185.047 139.223)" style="mix-blend-mode: multiply;isolation: isolate">
              <g id="Grupo_1099215" data-name="Grupo 1099215">
                <g id="Grupo_1099214" data-name="Grupo 1099214" clip-path="url(#clip-path-7)">
                  <path id="Trazado_873640" data-name="Trazado 873640" d="M661.061,468.524a1.342,1.342,0,0,1-.024.2,19.191,19.191,0,0,1-2.784,7.383,9.549,9.549,0,0,1-5.367,3.683,22.334,22.334,0,0,1-4.5.534c-1.839.1-3.677.156-5.52.183-6.708.1-13.415-.2-20.125-.276a1.932,1.932,0,0,0,1.835,1.338h35.359a1.938,1.938,0,0,0,1.936-1.937v-9.543a1.929,1.929,0,0,0-.8-1.564" transform="translate(-622.735 -468.524)" fill="#e9e9ec"/>
                </g>
              </g>
            </g>
            <rect id="Rectángulo_401253" data-name="Rectángulo 401253" width="3.48" height="44.646" transform="translate(201.627 154.203)" fill="#1f2737"/>
            <rect id="Rectángulo_401254" data-name="Rectángulo 401254" width="4.103" height="18.237" transform="translate(151.573 184.438)" fill="#1f2737"/>
            <rect id="Rectángulo_401255" data-name="Rectángulo 401255" width="26.757" height="4.436" transform="translate(140.246 121.584)" fill="#2a3449"/>
            <path id="Trazado_873641" data-name="Trazado 873641" d="M489.6,424.093H461.436a3.4,3.4,0,0,0-3.4,3.4v42.133a12.558,12.558,0,0,0,.27,4.308c.565,1.554,4.28,9.112,4.661,9.112h25.1c.312,0,4.928-8.3,4.928-10.6,0-1.877,0-3.754,0-5.63V427.494a3.4,3.4,0,0,0-3.4-3.4" transform="translate(-321.894 -298.072)" fill="#2a3449"/>
            <rect id="Rectángulo_401256" data-name="Rectángulo 401256" width="4.997" height="38.533" transform="translate(171.106 132.644)" fill="#1f2737"/>
            <rect id="Rectángulo_401257" data-name="Rectángulo 401257" width="26.757" height="13.203" transform="translate(140.246 131.284)" fill="#1f2737"/>
            <rect id="Rectángulo_401258" data-name="Rectángulo 401258" width="24.977" height="11.638" transform="translate(141.136 132.066)" fill="#588876"/>
            <path id="Trazado_873642" data-name="Trazado 873642" d="M477.316,507.518h-3.567a1.784,1.784,0,0,1,0-3.568h3.567a1.784,1.784,0,0,1,0,3.568" transform="translate(-331.72 -354.199)" fill="#eae5df"/>
            <path id="Trazado_873643" data-name="Trazado 873643" d="M510.337,507.518h-3.57a1.784,1.784,0,1,1,0-3.568h3.57a1.784,1.784,0,0,1,0,3.568" transform="translate(-354.924 -354.199)" fill="#eae5df"/>
            <path id="Trazado_873644" data-name="Trazado 873644" d="M543.355,507.518h-3.567a1.784,1.784,0,0,1,0-3.568h3.567a1.784,1.784,0,0,1,0,3.568" transform="translate(-378.135 -354.199)" fill="#eae5df"/>
            <path id="Trazado_873645" data-name="Trazado 873645" d="M477.316,530.527h-3.567a1.785,1.785,0,0,1,0-3.569h3.567a1.785,1.785,0,0,1,0,3.569" transform="translate(-331.72 -370.371)" fill="#eae5df"/>
            <path id="Trazado_873646" data-name="Trazado 873646" d="M510.337,530.527h-3.57a1.785,1.785,0,1,1,0-3.569h3.57a1.785,1.785,0,0,1,0,3.569" transform="translate(-354.924 -370.371)" fill="#eae5df"/>
            <path id="Trazado_873647" data-name="Trazado 873647" d="M543.355,530.527h-3.567a1.785,1.785,0,0,1,0-3.569h3.567a1.785,1.785,0,0,1,0,3.569" transform="translate(-378.135 -370.371)" fill="#eae5df"/>
            <path id="Trazado_873648" data-name="Trazado 873648" d="M477.316,553.546h-3.567a1.783,1.783,0,0,1,0-3.567h3.567a1.783,1.783,0,1,1,0,3.567" transform="translate(-331.72 -386.551)" fill="#eae5df"/>
            <path id="Trazado_873649" data-name="Trazado 873649" d="M510.337,553.546h-3.57a1.783,1.783,0,1,1,0-3.567h3.57a1.783,1.783,0,0,1,0,3.567" transform="translate(-354.924 -386.551)" fill="#eae5df"/>
            <path id="Trazado_873650" data-name="Trazado 873650" d="M543.355,553.546h-3.567a1.783,1.783,0,0,1,0-3.567h3.567a1.783,1.783,0,1,1,0,3.567" transform="translate(-378.135 -386.551)" fill="#eae5df"/>
            <path id="Trazado_873651" data-name="Trazado 873651" d="M477.316,576.56h-3.567a1.784,1.784,0,0,1,0-3.569h3.567a1.784,1.784,0,0,1,0,3.569" transform="translate(-331.72 -402.725)" fill="#ff725d"/>
            <path id="Trazado_873652" data-name="Trazado 873652" d="M510.337,576.56h-3.57a1.784,1.784,0,1,1,0-3.569h3.57a1.784,1.784,0,0,1,0,3.569" transform="translate(-354.924 -402.725)" fill="#ffdc39"/>
            <path id="Trazado_873653" data-name="Trazado 873653" d="M543.355,576.56h-3.567a1.784,1.784,0,0,1,0-3.569h3.567a1.784,1.784,0,0,1,0,3.569" transform="translate(-378.135 -402.725)" fill="#a1bb45"/>
            <path id="Trazado_873654" data-name="Trazado 873654" d="M456.64,917.525H175.4c-5.707,0-10.329-2.842-10.329-6.349V826.8h301.9v84.382c0,3.507-4.623,6.349-10.33,6.349" transform="translate(-116.018 -581.11)" fill="#a8ddf6"/>
            <g id="Grupo_1099219" data-name="Grupo 1099219" transform="translate(49.05 245.685)" style="mix-blend-mode: multiply;isolation: isolate">
              <g id="Grupo_1099218" data-name="Grupo 1099218">
                <g id="Grupo_1099217" data-name="Grupo 1099217" clip-path="url(#clip-path-8)">
                  <rect id="Rectángulo_401259" data-name="Rectángulo 401259" width="301.902" height="11.089" transform="translate(0)" fill="#e5ebef"/>
                </g>
              </g>
            </g>
            <path id="Trazado_873655" data-name="Trazado 873655" d="M389.687,729.517H10.316A10.315,10.315,0,0,1,0,719.2V692.369a10.315,10.315,0,0,1,10.316-10.313H389.687A10.311,10.311,0,0,1,400,692.369V719.2a10.311,10.311,0,0,1-10.312,10.312" transform="translate(0 -479.381)" fill="#0d66bf"/>
            <line id="Línea_583" data-name="Línea 583" x2="399.999" transform="translate(0 218.694)" fill="none" stroke="#fff" stroke-miterlimit="10" stroke-width="13.25"/>
            <line id="Línea_584" data-name="Línea 584" x2="399.999" transform="translate(0 232.088)" fill="none" stroke="#fff" stroke-miterlimit="10" stroke-width="13.25"/>
          </g>
        </g>
      </g>
    </g>
    <text id="Errores_en_el_cierre_de_caja" data-name="Errores en el
cierre de caja" transform="translate(800 10603)" fill="#12263f" font-size="24" font-family="Roboto-Bold, Roboto" font-weight="700"><tspan x="-67.852" y="0">Errores en el</tspan><tspan x="-72.521" y="30">cierre de caja</tspan></text>
  </g>
</svg>
