<svg xmlns="http://www.w3.org/2000/svg" width="1240.443" height="238.832" viewBox="0 0 1240.443 238.832">
  <g id="Grupo_1099533" data-name="Grupo 1099533" transform="translate(-180 -24068.984)">
    <rect id="_7056" data-name="7056" width="230.442" height="238.832" rx="22" transform="translate(180 24068.984)" fill="#d4eefb"/>
    <rect id="_7056-2" data-name="7056" width="230.442" height="238.832" rx="22" transform="translate(432 24068.984)" fill="#ffd4ce"/>
    <rect id="_7056-3" data-name="7056" width="230.442" height="238.832" rx="22" transform="translate(685 24068.984)" fill="#d4eefb"/>
    <rect id="_7056-4" data-name="7056" width="230.442" height="238.832" rx="22" transform="translate(937 24068.984)" fill="#ffd4ce"/>
    <rect id="_7056-5" data-name="7056" width="230.442" height="238.832" rx="22" transform="translate(1190 24068.984)" fill="#d4eefb"/>
    <text id="Fragilidad" transform="translate(295 24234.58)" fill="#12263f" font-size="19" font-family="Roboto-Bold, Roboto" font-weight="700"><tspan x="-42.281" y="0">Fragilidad</tspan></text>
    <text id="Durabilidad" transform="translate(548 24234.58)" fill="#12263f" font-size="19" font-family="Roboto-Bold, Roboto" font-weight="700"><tspan x="-48.613" y="0">Durabilidad</tspan></text>
    <text id="Resistencia_a_la_abrasión" data-name="Resistencia a
la abrasión" transform="translate(800 24234.58)" fill="#12263f" font-size="19" font-family="Roboto-Bold, Roboto" font-weight="700"><tspan x="-57.176" y="0">Resistencia a</tspan><tspan x="-46.934" y="25">la abrasión</tspan></text>
    <text id="Sensibilidad_a_la_humedad" data-name="Sensibilidad 
a la humedad" transform="translate(1052 24234.58)" fill="#12263f" font-size="19" font-family="Roboto-Bold, Roboto" font-weight="700"><tspan x="-54.769" y="0">Sensibilidad </tspan><tspan x="-57.227" y="25">a la humedad</tspan></text>
    <text id="Deterioro_y_vida_útil" data-name="Deterioro y
vida útil" transform="translate(1305 24234.58)" fill="#12263f" font-size="19" font-family="Roboto-Bold, Roboto" font-weight="700"><tspan x="-46.813" y="0">Deterioro y</tspan><tspan x="-33.695" y="25">vida útil</tspan></text>
    <g id="fragil" transform="translate(261 24104.52)">
      <path id="Trazado_874275" data-name="Trazado 874275" d="M31.179,7.5l-5.562,9.634H33.8L24.2,33.762H16.007l5.562-9.634h-8.18L22.989,7.5H7.5V35.368A21.5,21.5,0,0,0,25.977,56.657V80.769H18.239l-3.18,3.18v2.571H42.937V83.949l-3.18-3.18H32.02V56.657A21.5,21.5,0,0,0,50.5,35.368V7.5Zm0,0" transform="translate(-6.308 -6.308)" fill="#d1e7f8"/>
      <path id="Trazado_874276" data-name="Trazado 874276" d="M221.626,238.271l-15.089,26.134a2.544,2.544,0,0,0,2.2,3.816h30.178a2.544,2.544,0,0,0,2.2-3.816l-15.089-26.134A2.543,2.543,0,0,0,221.626,238.271Zm0,0" transform="translate(-173.41 -199.318)" fill="#ffdc39"/>
      <path id="Trazado_874277" data-name="Trazado 874277" d="M316.652,293.668h4.282v17.86h-4.282Zm0,0" transform="translate(-266.307 -246.977)" fill="#ffb655"/>
      <path id="Trazado_874278" data-name="Trazado 874278" d="M303.652,293.668h4.282v13.579h-4.282Zm0,0" transform="translate(-255.374 -246.977)" fill="#fff"/>
      <path id="Trazado_874279" data-name="Trazado 874279" d="M303.652,379.074h4.282v4.281h-4.282Zm0,0" transform="translate(-255.374 -318.804)" fill="#fff"/>
      <g id="Grupo_1099499" data-name="Grupo 1099499" transform="translate(1.192 1.192)">
        <path id="Trazado_874280" data-name="Trazado 874280" d="M126.219,17.134,131.781,7.5h-4.77l-5.562,9.634Zm0,0" transform="translate(-103.332 -7.5)" fill="#0d66bf"/>
        <path id="Trazado_874281" data-name="Trazado 874281" d="M126.89,68.094h-4.77l-9.6,16.628h4.77Zm0,0" transform="translate(-95.822 -58.46)" fill="#0d66bf"/>
        <path id="Trazado_874282" data-name="Trazado 874282" d="M63,468.332h-4.77l-3.18,3.18v2.571h4.77v-2.571Zm0,0" transform="translate(-47.487 -395.063)" fill="#0d66bf"/>
        <path id="Trazado_874283" data-name="Trazado 874283" d="M25.977,80.769h4.77V56.657A21.5,21.5,0,0,1,12.27,35.368V7.5H7.5V35.368A21.5,21.5,0,0,0,25.977,56.657Zm0,0" transform="translate(-7.5 -7.5)" fill="#0d66bf"/>
      </g>
      <path id="Trazado_874284" data-name="Trazado 874284" d="M211.307,264.406l14.907-25.82-.182-.315a2.543,2.543,0,0,0-4.406,0l-15.089,26.134a2.544,2.544,0,0,0,2.2,3.816h4.77A2.544,2.544,0,0,1,211.307,264.406Zm0,0" transform="translate(-173.41 -199.318)" fill="#ffb655"/>
      <path id="Trazado_874285" data-name="Trazado 874285" d="M303.652,293.668h2.067v13.579h-2.067Zm0,0" transform="translate(-255.374 -246.977)" fill="#e0e0e2"/>
      <path id="Trazado_874286" data-name="Trazado 874286" d="M303.652,379.074h2.067v4.281h-2.067Zm0,0" transform="translate(-255.374 -318.804)" fill="#e0e0e2"/>
      <path id="Trazado_874287" data-name="Trazado 874287" d="M26.9,73.269V51.361a22.7,22.7,0,0,0,18.478-22.3V0h-21.2L17.245,12.019h8.18L17.2,26.262H11.764l5.562-9.634H9.146L18.746,0H0V29.061a22.7,22.7,0,0,0,18.477,22.3V73.269H11.438L7.559,77.148V81.4H37.822V77.148l-3.879-3.879Zm8.533,5.75H9.945v-.884l2.481-2.481H22.691V73.27h-1.83V49.313l-1.026-.145A20.383,20.383,0,0,1,2.385,29.061V6.36h6.05V3.975H2.385V2.385H14.616l-9.6,16.628H13.2L7.634,28.647H18.579L29.555,9.634h-8.18l4.185-7.249H43V29.061A20.383,20.383,0,0,1,25.546,49.168l-1.027.145V75.654h8.436l2.481,2.481v.884Zm0,0"/>
      <path id="Trazado_874288" data-name="Trazado 874288" d="M235.834,257.5l-15.089-26.134a3.736,3.736,0,0,0-6.471,0L199.185,257.5a3.736,3.736,0,0,0,3.236,5.6H232.6a3.736,3.736,0,0,0,3.236-5.6Zm-2.066,2.544a1.327,1.327,0,0,1-1.17.676H202.421a1.351,1.351,0,0,1-1.17-2.027l15.089-26.134a1.351,1.351,0,0,1,2.34,0L233.768,258.7A1.327,1.327,0,0,1,233.768,260.047Zm0,0" transform="translate(-167.09 -193.011)"/>
      <path id="Trazado_874289" data-name="Trazado 874289" d="M296.152,306.413h6.667V286.168h-6.667Zm4.282-2.385h-1.9v-1.9h1.9Zm-1.9-15.475h1.9v11.194h-1.9Zm0,0" transform="translate(-249.066 -240.669)"/>
      <path id="Trazado_874290" data-name="Trazado 874290" d="M221.809,68.722l-1.794-1.572a16.318,16.318,0,0,0,4.042-10.756V40.45h2.385V56.394A18.7,18.7,0,0,1,221.809,68.722Zm4.633-29.862h-2.385V36.475h2.385Zm0-3.975h-2.385V32.5h2.385Zm0,0" transform="translate(-185.035 -27.333)" fill="#fff"/>
      <path id="Trazado_874291" data-name="Trazado 874291" d="M350.626,337.732l-3.456-5.987,2.065-1.192,3.457,5.987Zm-4.251-7.364-1.192-2.066,2.065-1.192,1.192,2.066Zm-1.987-3.443L343.2,324.86l2.065-1.192,1.192,2.065Zm0,0" transform="translate(-288.63 -272.207)" fill="#fff"/>
    </g>
    <g id="durabilidad-del-producto" transform="translate(481.99 24073.02)">
      <g id="Grupo_1099500" data-name="Grupo 1099500" transform="translate(24.463 32.954)">
        <path id="Trazado_874292" data-name="Trazado 874292" d="M80.333,39.51H40.063a9.075,9.075,0,0,0-9.053,9.048V86.305a9.076,9.076,0,0,0,9.053,9.053h40.27a9.079,9.079,0,0,0,9.053-9.053V48.56a9.078,9.078,0,0,0-9.053-9.05Z" transform="translate(-31.01 -39.51)" fill="#ffdc39" fill-rule="evenodd"/>
        <path id="Trazado_874293" data-name="Trazado 874293" d="M148.578,39.51H123.96V71.787l1.3-1.246,11.009-10.53,11.011,10.53,1.3,1.246Z" transform="translate(-107.083 -39.51)" fill="#ff725d" fill-rule="evenodd"/>
        <path id="Trazado_874294" data-name="Trazado 874294" d="M270.22,197.856a47.1,47.1,0,0,1,.463,6.588c0,17.484-9.625,32.478-23.331,38.864-13.713-6.386-23.332-21.38-23.332-38.864a47.1,47.1,0,0,1,.463-6.588,52.47,52.47,0,0,1,45.737,0Z" transform="translate(-188.974 -164.811)" fill="#0d66bf" fill-rule="evenodd"/>
        <path id="Trazado_874295" data-name="Trazado 874295" d="M298.741,277.867a11.929,11.929,0,1,1,11.926-11.926A11.929,11.929,0,0,1,298.741,277.867Z" transform="translate(-240.363 -215.062)" fill="#e6e6e6" fill-rule="evenodd"/>
      </g>
      <path id="Trazado_874296" data-name="Trazado 874296" d="M81.388,78.248a1.451,1.451,0,0,1,2.9,0v5.585a1.446,1.446,0,0,1-.432,1.035L80.5,88.224a1.452,1.452,0,0,1-2.054-2.054l2.94-2.94Zm1.453,18.967A13.382,13.382,0,1,1,96.223,83.834,13.382,13.382,0,0,1,82.841,97.216ZM75.433,91.24a10.474,10.474,0,1,0,0-14.813,10.47,10.47,0,0,0,0,14.813ZM107.145,65.8a47.1,47.1,0,0,1-6.068,30.81,40.929,40.929,0,0,1-17.624,16.157,1.465,1.465,0,0,1-1.24-.005A41.883,41.883,0,0,1,61.444,90.256H33.516a10.534,10.534,0,0,1-10.506-10.5V42A10.532,10.532,0,0,1,33.516,31.5h40.27A10.534,10.534,0,0,1,84.292,42V59.319A53.917,53.917,0,0,1,106.337,64.7a1.446,1.446,0,0,1,.808,1.106ZM60.384,87.354A47.8,47.8,0,0,1,58.535,65.8a1.454,1.454,0,0,1,.833-1.122c.875-.421,1.77-.824,2.671-1.2l-8.389-8.029L42.446,66.17a1.45,1.45,0,0,1-2.558-.937V34.407H33.516a7.626,7.626,0,0,0-7.6,7.6V79.752a7.627,7.627,0,0,0,7.6,7.6Zm7.031-25.8a53.794,53.794,0,0,1,13.974-2.239V42a7.626,7.626,0,0,0-7.6-7.6H67.414Zm37.192,7.824q-.084-1.22-.232-2.41a50.985,50.985,0,0,0-43.07,0,44.309,44.309,0,0,0,5.785,28.159,38.091,38.091,0,0,0,15.75,14.715,38.114,38.114,0,0,0,15.75-14.715,44.046,44.046,0,0,0,6.017-25.749Zm-40.1-7.541V34.407H42.8V61.841l9.856-9.429a1.437,1.437,0,0,1,2,0Z"/>
    </g>
    <g id="molienda" transform="translate(734.615 24036.076)">
      <path id="Trazado_874297" data-name="Trazado 874297" d="M116.77,78.021l25.676,23.954-17.058,17.058L101.434,93.356A10.851,10.851,0,0,1,116.77,78.021Z" transform="translate(-66.824 -5.169)" fill="#0d66bf" fill-rule="evenodd"/>
      <path id="Trazado_874298" data-name="Trazado 874298" d="M141.833,119.434c1.211-1.553,3.3-2.665,4.944-1.023l5.072,5.072a2.781,2.781,0,0,1,0,3.921c-1.211,1.553-3.3,2.665-4.944,1.023l-5.072-5.071A2.781,2.781,0,0,1,141.833,119.434Z" transform="translate(-99.8 -38.137)" fill="#ff725d" fill-rule="evenodd"/>
      <path id="Trazado_874299" data-name="Trazado 874299" d="M203.812,180.516c14.3-15.363,41.711-2.488,39.558,17.987l-17.482-1.451-15,6.478-7.94,8.889A23.206,23.206,0,0,1,203.812,180.516Z" transform="translate(-143.24 -81.701)" fill="#53bced" fill-rule="evenodd"/>
      <path id="Trazado_874300" data-name="Trazado 874300" d="M233.1,209.685c15.214-14.7,37.46,7.549,22.758,22.759C240.642,247.146,218.4,224.894,233.1,209.685Z" transform="translate(-167.496 -105.842)" fill="#ccc" fill-rule="evenodd"/>
      <path id="Trazado_874301" data-name="Trazado 874301" d="M285.865,262.452c3.247-3.218,8.162,1.7,4.943,4.944C287.561,270.614,282.646,265.7,285.865,262.452Z" transform="translate(-211.356 -149.701)" fill="#ff725d" fill-rule="evenodd"/>
      <path id="Trazado_874302" data-name="Trazado 874302" d="M190.1,391.591l3.913,4.548H111.077c3.645-4.555,6.868-8.569,13.979-8.317h54.977c4.315,0,8.016,1.386,10.066,3.769Z" transform="translate(-76.567 -247.771)" fill="#ffdc39" fill-rule="evenodd"/>
      <path id="Trazado_874303" data-name="Trazado 874303" d="M49.514,131.09a1.478,1.478,0,0,1-1.111,1.77l-7.68,1.756a1.479,1.479,0,0,1-.658-2.883l7.68-1.755A1.477,1.477,0,0,1,49.514,131.09Zm0-6.773a1.48,1.48,0,0,1-1.769,1.112l-7.68-1.756a1.478,1.478,0,1,1,.658-2.882l7.68,1.754A1.48,1.48,0,0,1,49.514,124.317Zm58.348,9.187a1.484,1.484,0,0,1-1.773,1.112l-7.679-1.756a1.478,1.478,0,1,1,.658-2.882l7.681,1.756a1.479,1.479,0,0,1,1.112,1.77ZM98.41,122.546l7.679-1.754a1.479,1.479,0,0,1,.66,2.882l-7.681,1.756a1.432,1.432,0,0,1-.33.037,1.484,1.484,0,0,1-.329-2.921ZM37.731,146.891c2.5-3.409,5.5-5.386,10.759-5.359h54.977c3.848,0,7.192,1.216,8.944,3.254l1.812,2.105H37.731Zm80.834.514-3.913-4.547c-2.342-2.722-6.42-4.283-11.185-4.283H48.489c-7.48-.278-11.293,3.954-15.1,8.831a1.489,1.489,0,0,0,1.122,2.442h82.935a1.489,1.489,0,0,0,1.119-2.442ZM74.575,106.729c-6.189,1.724-5.161,7.045-7.512,7.167a1.486,1.486,0,0,1-1.426-1.881,11.841,11.841,0,0,1,8.134-8.133,1.479,1.479,0,0,1,.8,2.846ZM87.3,116.606a1.481,1.481,0,0,1,1.023,1.825,11.844,11.844,0,0,1-8.134,8.133,1.479,1.479,0,0,1-.8-2.846C85.761,122.02,84.585,115.9,87.3,116.606Zm-8.891.043c1.876-1.825-1.031-4.731-2.854-2.852C73.676,115.622,76.583,118.525,78.408,116.65Zm2.091-4.944c-4.7-4.539-11.576,2.33-7.035,7.035C78.17,123.281,85.034,116.411,80.5,111.706ZM43.079,82.344c.691-.733,1.829-2.08,2.852-1.023.357.56,5.779,5.247,5.449,5.986.083.742-.99,1.453-1.4,1.938a1.292,1.292,0,0,1-1.828,0l-5.071-5.071A1.293,1.293,0,0,1,43.079,82.344Zm2.98,8.992c2.145,2.192,5.355,1.219,7.035-1.023,4.06-4.231-2.661-8.263-5.071-11.083-2.144-2.19-5.356-1.219-7.035,1.023C36.928,84.491,43.643,88.507,46.059,91.336Zm2.878-17.4c-8.649-8.1-21.351,4.6-13.246,13.249l18.144,19.447A24.929,24.929,0,0,1,68.382,92.074ZM92.343,99.86c-19.366-18.721-48.6,7.062-32.6,28.6l2.835-3.172C47.137,98.937,91.5,84.476,94.535,114.854l4.17.347A21.736,21.736,0,0,0,92.343,99.86Zm-5.028,25.7c13.266-13.986-6.688-33.935-20.668-20.667C53.378,118.874,73.335,138.825,87.315,125.557ZM35.237,98.748C17.78,79.627,16.287,88,30.675,73.011a1.461,1.461,0,0,1,2.17.169A12.274,12.274,0,0,0,33.529,89.2l19.339,20.729c-1.512,7.368.088,17.5,6.841,22.27,1.047.241,4.088-4.087,4.783-4.617,9.769,10.323,28.141,4.2,29.86-9.773l5.657.469a1.49,1.49,0,0,0,1.6-1.374c1.509-15.9-14.429-29.633-29.924-25.794L50.955,71.773a12.275,12.275,0,0,0-16.019-.684,4.4,4.4,0,0,0-6.353-.167L19,80.507a4.377,4.377,0,0,0,0,6.184l14.149,14.149a5.392,5.392,0,0,1-7.626,7.626L14.908,97.853a1.478,1.478,0,0,0-2.089,2.091L23.43,110.557a8.327,8.327,0,0,0,5.9,2.44c7.146.253,11.22-9.286,5.9-14.25Z" fill="#1e2f3f" fill-rule="evenodd"/>
    </g>
    <g id="aire" transform="translate(1009 24102.496)">
      <path id="Trazado_874304" data-name="Trazado 874304" d="M42.367,22.912a10.183,10.183,0,1,1-20.367,0C22,17.288,32.183,4,32.183,4S42.367,17.288,42.367,22.912Z" transform="translate(38.191 3.777)" fill="#53bced"/>
      <path id="Trazado_874305" data-name="Trazado 874305" d="M38.242,22.952a10.183,10.183,0,0,1-8.787,10.067,10.093,10.093,0,0,0,2.968-7.158c0-4.073-5.324-12.162-8.263-16.323,2.095-3.142,3.9-5.5,3.9-5.5S38.242,17.337,38.242,22.952Z" transform="translate(42.316 3.853)" fill="#fff"/>
      <path id="Trazado_874306" data-name="Trazado 874306" d="M55.372,52.462C55.372,38,29.186,3,29.186,3S3,38,3,52.462a26.186,26.186,0,0,0,52.372,0Z" transform="translate(1.91 1.867)" fill="#53bced"/>
      <path id="Trazado_874307" data-name="Trazado 874307" d="M40.783,52.462A26.128,26.128,0,0,1,23.3,77.135,26.052,26.052,0,0,0,34.964,55.372c0-12.1-18.359-38.61-24.324-46.9C13.026,5.095,14.6,3,14.6,3S40.783,38,40.783,52.462Z" transform="translate(16.499 1.867)" fill="#fff"/>
      <path id="Trazado_874308" data-name="Trazado 874308" d="M62.608,35.108c-6.4,0-6.4-5.121-12.8-5.121s-6.4,5.121-12.8,5.121-6.4-5.121-12.8-5.121-6.4,5.121-12.8,5.121V23.121c6.4,0,6.4-5.121,12.8-5.121s6.4,5.121,12.8,5.121S43.391,18,49.806,18s6.4,5.121,12.8,5.121Z" transform="translate(17.95 30.51)" fill="#fff"/>
      <path id="Trazado_874309" data-name="Trazado 874309" d="M80.558,50.722A6.352,6.352,0,0,1,75.967,48.8a12.171,12.171,0,0,0-16.442,0l-.119.093c-4.265-16.6-25.06-44.539-25.982-45.77a3.014,3.014,0,0,0-4.655,0C26.027,6.787,2,39.331,2,54.329A29.1,29.1,0,0,0,47.264,78.522a2.91,2.91,0,1,0-3.238-4.836A23.276,23.276,0,0,1,7.819,54.329c0-10,15.106-33.14,23.276-44.516,5.642,7.9,19.785,28.566,22.732,40.806A6.983,6.983,0,0,1,50.363,48.8a12.156,12.156,0,0,0-16.433,0,6.337,6.337,0,0,1-4.577,1.92,2.91,2.91,0,1,0,0,5.819,11.868,11.868,0,0,0,8.214-3.2,6.418,6.418,0,0,1,9.159,0,12.168,12.168,0,0,0,16.439,0,6.439,6.439,0,0,1,9.18,0,11.9,11.9,0,0,0,8.214,3.2,2.91,2.91,0,1,0,0-5.819Z"/>
      <path id="Trazado_874310" data-name="Trazado 874310" d="M64.522,26.241a6.352,6.352,0,0,1-4.591-1.923,12.171,12.171,0,0,0-16.442,0,6.427,6.427,0,0,1-9.171,0,12.156,12.156,0,0,0-16.433,0,6.337,6.337,0,0,1-4.577,1.92,2.91,2.91,0,1,0,0,5.819,11.868,11.868,0,0,0,8.214-3.2,6.418,6.418,0,0,1,9.159,0,12.168,12.168,0,0,0,16.439,0,6.439,6.439,0,0,1,9.18,0,11.9,11.9,0,0,0,8.222,3.2,2.91,2.91,0,1,0,0-5.819Z" transform="translate(16.036 36.468)"/>
      <path id="Trazado_874311" data-name="Trazado 874311" d="M34.093,37.873A13.093,13.093,0,0,0,47.186,24.78C47.186,18.486,38.2,6.449,36.4,4.1a3.017,3.017,0,0,0-4.62,0C29.982,6.449,21,18.486,21,24.78A13.093,13.093,0,0,0,34.093,37.873Zm0-27.059c3.538,5.045,7.274,11.347,7.274,13.966a7.274,7.274,0,1,1-14.548,0C26.819,22.161,30.555,15.859,34.093,10.814Z" transform="translate(36.282 1.909)"/>
    </g>
    <g id="producto-al-final-de-su-vida-util" transform="translate(1262 24089.375)">
      <g id="Grupo_1099501" data-name="Grupo 1099501" transform="translate(1.267 16.411)">
        <path id="Trazado_874312" data-name="Trazado 874312" d="M8.415,225.754H35.139a.916.916,0,0,0,.916-.916v-22.7a.916.916,0,0,0-.916-.916H8.415a.916.916,0,0,0-.916.916v22.7a.916.916,0,0,0,.916.916Z" transform="translate(-7.499 -171.043)" fill="#ffdc39"/>
        <path id="Trazado_874313" data-name="Trazado 874313" d="M148.623,201.222H144.06a.916.916,0,0,1,.916.916v22.7a.916.916,0,0,1-.916.916h4.563a.916.916,0,0,0,.916-.916v-22.7A.916.916,0,0,0,148.623,201.222Z" transform="translate(-120.982 -171.043)" fill="#e6c112"/>
        <path id="Trazado_874314" data-name="Trazado 874314" d="M64.04,201.222v10.895a.4.4,0,0,0,.633.318l3.855-2.865a.4.4,0,0,1,.473,0l3.855,2.865a.4.4,0,0,0,.633-.318V201.222Z" transform="translate(-54.485 -171.043)" fill="#f7f3f1"/>
        <path id="Trazado_874323" data-name="Trazado 874323" d="M14.029,0A14.029,14.029,0,1,1,0,14.029,14.029,14.029,0,0,1,14.029,0Z" transform="translate(35.029 51.285) rotate(-1.833)" fill="#ff725d"/>
        <path id="Trazado_874315" data-name="Trazado 874315" d="M288.987,323.329a14.118,14.118,0,0,0-2.281.188,14.028,14.028,0,0,1,0,27.683,14.029,14.029,0,1,0,2.281-27.87Z" transform="translate(-239.522 -272.515)" fill="#f05741"/>
        <path id="Trazado_874316" data-name="Trazado 874316" d="M386.5,99.961a.908.908,0,0,1-.621-.993,36.454,36.454,0,0,0-14.51-34.7l-5.034,6.988a27.754,27.754,0,0,1,11.319,22.386q0,1.126-.091,2.229a.914.914,0,0,1-1.192.8l-3.445-1.119a.912.912,0,0,0-1.143,1.166l4.6,13.27a.912.912,0,0,0,1.383.449l11.523-8.03a.912.912,0,0,0-.239-1.615Z" transform="translate(-305.697 -57.231)" fill="#53bced"/>
        <path id="Trazado_874317" data-name="Trazado 874317" d="M191.606,38.565,188,24.99a.912.912,0,0,0-1.6-.327l-1.653,2.116a.908.908,0,0,1-1.148.242A36.431,36.431,0,0,0,145.421,29.2l4.729,7.208a27.812,27.812,0,0,1,27.7-2.638.914.914,0,0,1,.343,1.393l-2.233,2.858a.912.912,0,0,0,.7,1.473l14.044.214a.911.911,0,0,0,.895-1.145Z" transform="translate(-122.113 -22.64)" fill="#ffdc39"/>
        <path id="Trazado_874318" data-name="Trazado 874318" d="M89.924,49.591,75.935,48.336a.912.912,0,0,0-.855,1.391l1.426,2.283a.908.908,0,0,1-.164,1.16,36.455,36.455,0,0,0-10.062,14.79h9.366a27.842,27.842,0,0,1,5.085-7.085.911.911,0,0,1,1.417.163l1.917,3.067a.912.912,0,0,0,1.625-.158l5-13.124A.911.911,0,0,0,89.924,49.591Z" transform="translate(-56.347 -43.99)" fill="#0d66bf"/>
      </g>
      <g id="Grupo_1099502" data-name="Grupo 1099502" transform="translate(0 15.144)">
        <path id="Trazado_874319" data-name="Trazado 874319" d="M28.908,193.722H2.184A2.186,2.186,0,0,0,0,195.906v10.376a1.267,1.267,0,1,0,2.535,0V196.257h7.02v9.628a1.664,1.664,0,0,0,2.656,1.335l3.335-2.479,3.335,2.479a1.663,1.663,0,0,0,2.656-1.335v-9.628h7.02v22H2.535V212.2A1.267,1.267,0,1,0,0,212.2v6.41a2.186,2.186,0,0,0,2.184,2.184H28.908a2.186,2.186,0,0,0,2.184-2.184v-22.7a2.186,2.186,0,0,0-2.184-2.184ZM19,204.151l-2.464-1.831a1.654,1.654,0,0,0-1.985,0l-2.464,1.831v-7.894H19Z" transform="translate(0 -163.544)"/>
        <path id="Trazado_874320" data-name="Trazado 874320" d="M224.987,315.828a15.3,15.3,0,1,0,15.3,15.3A15.314,15.314,0,0,0,224.987,315.828Zm0,28.058a12.762,12.762,0,1,1,12.762-12.762A12.776,12.776,0,0,1,224.987,343.886Z" transform="translate(-174.255 -265.015)"/>
        <path id="Trazado_874321" data-name="Trazado 874321" d="M273.832,367.434a1.268,1.268,0,0,0-1.792,0l-4.475,4.475-4.475-4.475a1.267,1.267,0,1,0-1.792,1.792l4.475,4.475-4.475,4.475a1.267,1.267,0,0,0,1.792,1.793l4.475-4.475,4.475,4.475a1.267,1.267,0,0,0,1.792-1.793l-4.475-4.475,4.475-4.475A1.268,1.268,0,0,0,273.832,367.434Z" transform="translate(-216.833 -307.592)"/>
        <path id="Trazado_874322" data-name="Trazado 874322" d="M135.346,60.517a2.167,2.167,0,0,0-1.482-1.752l-2.268-.737a38.046,38.046,0,0,0-.57-13.548,1.267,1.267,0,1,0-2.473.559,35.505,35.505,0,0,1,.491,12.924,2.17,2.17,0,0,0,1.483,2.383l1.874.609L121.85,68.308l-4.215-12.15,2.765.9a2.181,2.181,0,0,0,2.846-1.9c.063-.786.1-1.57.1-2.331a28.878,28.878,0,0,0-6.322-18.1l1.708.026a2.178,2.178,0,0,0,2.1-2.739L120,28.891a35.3,35.3,0,0,1,6.809,10.623,1.267,1.267,0,1,0,2.345-.961,37.9,37.9,0,0,0-10.4-14.364l-1.528-5.753a2.18,2.18,0,0,0-3.824-.781l-1.467,1.878a37.706,37.706,0,0,0-36.209.493l-5.911-.53a2.179,2.179,0,0,0-2.043,3.325l1.267,2.029a37.822,37.822,0,0,0-10.183,15.1,1.267,1.267,0,0,0,1.191,1.7h9.366a1.268,1.268,0,0,0,1.133-.7,26.5,26.5,0,0,1,4.534-6.433L76.757,37.2a2.179,2.179,0,0,0,3.884-.378l3.2-8.395a26.569,26.569,0,0,1,21.075.088l-1.953,2.5a2.179,2.179,0,0,0,1.684,3.521l8.975.136a26.375,26.375,0,0,1,7.183,18.149c0,.55-.018,1.115-.055,1.684l-3.012-.978a2.179,2.179,0,0,0-2.734,2.787l4.6,13.268a2.161,2.161,0,0,0,1.382,1.358,2.167,2.167,0,0,0,1.923-.283l11.525-8.031a2.17,2.17,0,0,0,.908-2.109ZM78.528,35.249l-1.537-2.461a2.178,2.178,0,0,0-3.394-.382,29.076,29.076,0,0,0-4.953,6.708H61.908a35.329,35.329,0,0,1,9.043-12.575,2.169,2.169,0,0,0,.4-2.78L70.3,22.083,83.11,23.232Zm29.066-7.388a2.174,2.174,0,0,0-1.213-1.468,29.131,29.131,0,0,0-21.329-1.14l.593-1.556A2.178,2.178,0,0,0,83.8,20.749l-3.238-.29A35.186,35.186,0,0,1,111,21.9a2.169,2.169,0,0,0,2.752-.575l1.213-1.552,3.3,12.429L105.4,32.012l1.794-2.3a2.168,2.168,0,0,0,.4-1.855Z" transform="translate(-48.847 -15.144)"/>
      </g>
    </g>
  </g>
</svg>
