<svg xmlns="http://www.w3.org/2000/svg" width="1240" height="1365" viewBox="0 0 1240 1365">
  <g id="Grupo_1099535" data-name="Grupo 1099535" transform="translate(-180.333 -442)">
    <path id="Trazado_874368" data-name="Trazado 874368" d="M20,0H1220a20,20,0,0,1,20,20V1345a20,20,0,0,1-20,20H20a20,20,0,0,1-20-20V20A20,20,0,0,1,20,0Z" transform="translate(180.333 442)" fill="#f6f6f6"/>
    <g id="Grupo_1099182" data-name="Grupo 1099182" transform="translate(15 -10)">
      <g id="Rectángulo_401209" data-name="Rectángulo 401209" transform="translate(796.333 707)" fill="#eff5fa" stroke="#0c66bf" stroke-width="2">
        <rect width="176" height="69" rx="12" stroke="none"/>
        <rect x="1" y="1" width="174" height="67" rx="11" fill="none"/>
      </g>
      <g id="Rectángulo_401215" data-name="Rectángulo 401215" transform="translate(911.333 979)" fill="#eff5fa" stroke="#0c66bf" stroke-width="2">
        <rect width="164" height="36" rx="12" stroke="none"/>
        <rect x="1" y="1" width="162" height="34" rx="11" fill="none"/>
      </g>
      <g id="Rectángulo_401218" data-name="Rectángulo 401218" transform="translate(911.333 1059)" fill="#eff5fa" stroke="#0c66bf" stroke-width="2">
        <rect width="164" height="92" rx="12" stroke="none"/>
        <rect x="1" y="1" width="162" height="90" rx="11" fill="none"/>
      </g>
      <g id="Rectángulo_401217" data-name="Rectángulo 401217" transform="translate(691.333 1081)" fill="#eff5fa" stroke="#0c66bf" stroke-width="2">
        <rect width="164" height="138" rx="12" stroke="none"/>
        <rect x="1" y="1" width="162" height="136" rx="11" fill="none"/>
      </g>
      <g id="Rectángulo_401210" data-name="Rectángulo 401210" transform="translate(796.333 796)" fill="#eff5fa" stroke="#0c66bf" stroke-width="2">
        <rect width="176" height="164" rx="12" stroke="none"/>
        <rect x="1" y="1" width="174" height="162" rx="11" fill="none"/>
      </g>
      <g id="Rectángulo_401212" data-name="Rectángulo 401212" transform="translate(598.333 796)" fill="#eff5fa" stroke="#0c66bf" stroke-width="2">
        <rect width="153" height="116" rx="12" stroke="none"/>
        <rect x="1" y="1" width="151" height="114" rx="11" fill="none"/>
      </g>
      <g id="Rectángulo_401214" data-name="Rectángulo 401214" transform="translate(1015.333 796)" fill="#eff5fa" stroke="#0c66bf" stroke-width="2">
        <rect width="153" height="93" rx="12" stroke="none"/>
        <rect x="1" y="1" width="151" height="91" rx="11" fill="none"/>
      </g>
      <g id="Rectángulo_401204" data-name="Rectángulo 401204" transform="translate(481.333 1203)" fill="#fff6cc" stroke="#ffdc39" stroke-width="3">
        <rect width="190" height="69" rx="12" stroke="none"/>
        <rect x="1.5" y="1.5" width="187" height="66" rx="10.5" fill="none"/>
      </g>
      <g id="Rectángulo_401226" data-name="Rectángulo 401226" transform="translate(1237.333 835)" fill="#f2eac9" stroke="#ccb02e" stroke-width="2">
        <rect width="152" height="162" rx="12" stroke="none"/>
        <rect x="1" y="1" width="150" height="160" rx="11" fill="none"/>
      </g>
      <g id="Rectángulo_401227" data-name="Rectángulo 401227" transform="translate(1237.333 708)" fill="#f2eac9" stroke="#ccb02e" stroke-width="2">
        <rect width="152" height="84" rx="12" stroke="none"/>
        <rect x="1" y="1" width="150" height="82" rx="11" fill="none"/>
      </g>
      <text id="_2._Recaudo_en_el_punto_de_pago" data-name="2. Recaudo en el
punto de pago" transform="translate(576.333 1232)" fill="#12263f" font-size="18" font-family="Roboto-Black, Roboto" font-weight="800"><tspan x="-67.421" y="0">2. Recaudo en el</tspan><tspan x="-57.749" y="25">punto de pago</tspan></text>
      <g id="Rectángulo_401176" data-name="Rectángulo 401176" transform="translate(180.333 773)" fill="#ffdbd5" stroke="#ff725d" stroke-width="2">
        <rect width="153" height="79" rx="12" stroke="none"/>
        <rect x="1" y="1" width="151" height="77" rx="11" fill="none"/>
      </g>
      <g id="Rectángulo_401177" data-name="Rectángulo 401177" transform="translate(386.333 796)" fill="#ffdbd5" stroke="#ff725d" stroke-width="2">
        <rect width="156" height="86" rx="12" stroke="none"/>
        <rect x="1" y="1" width="154" height="84" rx="11" fill="none"/>
      </g>
      <g id="Rectángulo_401174" data-name="Rectángulo 401174" transform="translate(266.333 981)" fill="#ffdbd5" stroke="#ff725d" stroke-width="2">
        <rect width="180" height="78" rx="12" stroke="none"/>
        <rect x="1" y="1" width="178" height="76" rx="11" fill="none"/>
      </g>
      <text id="Aprender_a_manejar_el_flujo_de_efectivo_en_el_punto_de_pago." data-name="Aprender a manejar
el flujo de efectivo
en el punto de pago." transform="translate(257.333 794)" fill="#12263f" font-size="16" font-family="Roboto-Regular, Roboto"><tspan x="-69.746" y="0">Aprender a manejar</tspan><tspan x="-64.578" y="24">el flujo de efectivo</tspan><tspan x="-71.91" y="48">en el punto de pago.</tspan></text>
      <text id="Aprender_a_manejar_el_flujo_de_efectivo_en_el_punto_de_pago.-2" data-name="Aprender a manejar
el flujo de efectivo
en el punto de pago." transform="translate(464.333 822)" fill="#12263f" font-size="16" font-family="Roboto-Regular, Roboto"><tspan x="-69.746" y="0">Aprender a manejar</tspan><tspan x="-64.578" y="24">el flujo de efectivo</tspan><tspan x="-71.91" y="48">en el punto de pago.</tspan></text>
      <text id="Desarrollar_habilidades_para_manejar_el_dinero_en_el_punto_de_pago." data-name="Desarrollar habilidades
para manejar el dinero
en el punto de pago." transform="translate(356.333 1003)" fill="#12263f" font-size="16" font-family="Roboto-Regular, Roboto"><tspan x="-81.59" y="0">Desarrollar habilidades</tspan><tspan x="-79.145" y="24">para manejar el dinero</tspan><tspan x="-71.91" y="48">en el punto de pago.</tspan></text>
      <text id="Seguridad_y_herramientas." data-name="Seguridad y
herramientas." transform="translate(884.333 736)" fill="#12263f" font-size="16" font-family="Roboto-Regular, Roboto"><tspan x="-41.672" y="0">Seguridad y</tspan><tspan x="-49.055" y="24">herramientas.</tspan></text>
      <text id="Excedentes_de_pago." data-name="Excedentes de pago." transform="translate(993.333 1004)" fill="#12263f" font-size="16" font-family="Roboto-Regular, Roboto"><tspan x="-73.707" y="0">Excedentes de pago.</tspan></text>
      <text id="Aprender_a_manejar_el_dinero_sobrante_en_el_punto_de_pago." data-name="Aprender a manejar
el dinero sobrante
en el punto de pago." transform="translate(993.333 1088)" fill="#12263f" font-size="16" font-family="Roboto-Regular, Roboto"><tspan x="-69.746" y="0">Aprender a manejar</tspan><tspan x="-63.781" y="24">el dinero sobrante</tspan><tspan x="-71.91" y="48">en el punto de pago.</tspan></text>
      <text id="Asegurar_el_cumplimiento_de_las_leyes_en_cuanto_a_los_medios_de_pago_en_el_punto_de_pago." data-name="Asegurar el
cumplimiento de las
leyes en cuanto a los
medios de pago en
el punto de pago." transform="translate(773.333 1109)" fill="#12263f" font-size="16" font-family="Roboto-Regular, Roboto"><tspan x="-40.25" y="0">Asegurar el</tspan><tspan x="-71.813" y="24">cumplimiento de las</tspan><tspan x="-74.242" y="48">leyes en cuanto a los</tspan><tspan x="-67.625" y="72">medios de pago en</tspan><tspan x="-61.277" y="96">el punto de pago.</tspan></text>
      <text id="Utilizar_herramientas_seguras_en_el_punto_de_pago_para_garantizar_la_seguridad_de_las_transacciones." data-name="Utilizar herramientas
seguras en el punto
de pago para
garantizar la
seguridad de las
transacciones." transform="translate(884.333 825)" fill="#12263f" font-size="16" font-family="Roboto-Regular, Roboto"><tspan x="-73.578" y="0">Utilizar herramientas</tspan><tspan x="-69.473" y="24">seguras en el punto</tspan><tspan x="-46.344" y="48">de pago para</tspan><tspan x="-44.008" y="72">garantizar la</tspan><tspan x="-58.414" y="96">seguridad de las</tspan><tspan x="-52.168" y="120">transacciones.</tspan></text>
      <text id="Verificar_que_los_precios_sean_correctos_en_el_punto_de_pago." data-name="Verificar que los
precios sean
correctos en el
punto de pago." transform="translate(675.333 825)" fill="#12263f" font-size="16" font-family="Roboto-Regular, Roboto"><tspan x="-57.266" y="0">Verificar que los</tspan><tspan x="-45.285" y="24">precios sean</tspan><tspan x="-52.531" y="48">correctos en el</tspan><tspan x="-53.117" y="72">punto de pago.</tspan></text>
      <text id="Procesar_devoluciones_en_el_punto_de_pago." data-name="Procesar
devoluciones en el
punto de pago." transform="translate(1092.333 825)" fill="#12263f" font-size="16" font-family="Roboto-Regular, Roboto"><tspan x="-31.848" y="0">Procesar</tspan><tspan x="-65.691" y="24">devoluciones en el</tspan><tspan x="-53.117" y="48">punto de pago.</tspan></text>
      <text id="Aprender_técnicas_específicas_para_empaquetar_diferentes_tipos_de_productos_en_el_punto_de_venta." data-name="Aprender técnicas
específicas para
empaquetar
diferentes tipos de
productos en el
punto de venta." transform="translate(1313.333 863)" fill="#12263f" font-size="16" font-family="Roboto-Regular, Roboto"><tspan x="-64.488" y="0">Aprender técnicas</tspan><tspan x="-58.07" y="24">específicas para</tspan><tspan x="-42.957" y="48">empaquetar</tspan><tspan x="-66.078" y="72">diferentes tipos de</tspan><tspan x="-54.805" y="96">productos en el</tspan><tspan x="-54.668" y="120">punto de venta.</tspan></text>
      <text id="Empaque_de_productos_según_naturaleza." data-name="Empaque de
productos según
naturaleza." transform="translate(1313.333 733)" fill="#12263f" font-size="16" font-family="Roboto-Regular, Roboto"><tspan x="-44.324" y="0">Empaque de</tspan><tspan x="-59.668" y="24">productos según</tspan><tspan x="-39.293" y="48">naturaleza.</tspan></text>
      <path id="Trazado_873415" data-name="Trazado 873415" d="M-12403-8948v333" transform="translate(12759.333 9595.999)" fill="none" stroke="#707070" stroke-width="1"/>
      <path id="Trazado_873420" data-name="Trazado 873420" d="M-12403-8615v-333s-3.45-186.458,136.9-303.664" transform="translate(12979.333 9817.999)" fill="none" stroke="#707070" stroke-width="1"/>
      <path id="Trazado_873421" data-name="Trazado 873421" d="M-12266.113-8615v-333s6.171-336.748-199.432-336.748" transform="translate(13453.891 9817.999)" fill="none" stroke="#707070" stroke-width="1"/>
      <path id="Trazado_873417" data-name="Trazado 873417" d="M-12403-8948v44" transform="translate(12660.333 9676.999)" fill="none" stroke="#707070" stroke-width="1"/>
      <path id="Trazado_873419" data-name="Trazado 873419" d="M-12403-8948v35" transform="translate(12866.881 9708.999)" fill="none" stroke="#707070" stroke-width="1"/>
      <path id="Trazado_873422" data-name="Trazado 873422" d="M-12403-8948v43" transform="translate(13077.833 9700.999)" fill="none" stroke="#707070" stroke-width="1"/>
      <path id="Trazado_873423" data-name="Trazado 873423" d="M-12403-8948v20" transform="translate(13287.333 9723.999)" fill="none" stroke="#707070" stroke-width="1"/>
      <path id="Trazado_873424" data-name="Trazado 873424" d="M-12403-8948v34" transform="translate(13287.333 9620.999)" fill="none" stroke="#707070" stroke-width="1"/>
      <path id="Trazado_873425" data-name="Trazado 873425" d="M-12403-8948v41" transform="translate(13176.333 9988)" fill="none" stroke="#707070" stroke-width="1"/>
      <path id="Trazado_873437" data-name="Trazado 873437" d="M-12403-8948v108" transform="translate(12928.333 10220)" fill="none" stroke="#707070" stroke-width="1"/>
      <path id="Trazado_873438" data-name="Trazado 873438" d="M-12403-8948v294.477" transform="translate(13026.333 10220)" fill="none" stroke="#707070" stroke-width="1"/>
      <path id="Trazado_873426" data-name="Trazado 873426" d="M-12403-8948v44" transform="translate(13396.333 9963)" fill="none" stroke="#707070" stroke-width="1"/>
      <path id="Trazado_873427" data-name="Trazado 873427" d="M-12403-8948v43" transform="translate(13495.333 9701.001)" fill="none" stroke="#707070" stroke-width="1"/>
      <path id="Trazado_873435" data-name="Trazado 873435" d="M-12403-8948v35" transform="translate(13716.333 9621.001)" fill="none" stroke="#707070" stroke-width="1"/>
      <path id="Trazado_873436" data-name="Trazado 873436" d="M-12403-8948v43" transform="translate(13716.333 9740.001)" fill="none" stroke="#707070" stroke-width="1"/>
      <g id="Rectángulo_401168" data-name="Rectángulo 401168" transform="translate(282.333 897)" fill="#ffdbd5" stroke="#ff725d" stroke-width="2">
        <rect width="147" height="38" rx="12" stroke="none"/>
        <rect x="1" y="1" width="145" height="36" rx="11" fill="none"/>
      </g>
      <text id="Manejo_de_dinero." data-name="Manejo de dinero." transform="translate(356.333 923)" fill="#12263f" font-size="16" font-family="Roboto-Regular, Roboto"><tspan x="-63.574" y="0">Manejo de dinero.</tspan></text>
      <path id="Trazado_873416" data-name="Trazado 873416" d="M-12453.452-8955.892s-41.793,17.025-48.109,56.251" transform="translate(12759.333 9596)" fill="none" stroke="#707070" stroke-width="1"/>
      <path id="Trazado_873418" data-name="Trazado 873418" d="M-12501.562-8955.892s41.793,17.025,48.109,56.251" transform="translate(12916.895 9596)" fill="none" stroke="#707070" stroke-width="1"/>
      <g id="Rectángulo_401169" data-name="Rectángulo 401169" transform="translate(192.333 693)" fill="#ffdbd5" stroke="#ff725d" stroke-width="2">
        <rect width="130" height="36" rx="12" stroke="none"/>
        <rect x="1" y="1" width="128" height="34" rx="11" fill="none"/>
      </g>
      <text id="Manejo_de_caja." data-name="Manejo de caja." transform="translate(257.333 717)" fill="#12263f" font-size="15" font-family="Roboto-Regular, Roboto"><tspan x="-52.573" y="0">Manejo de caja.</tspan></text>
      <g id="Rectángulo_401175" data-name="Rectángulo 401175" transform="translate(396.333 693)" fill="#ffdbd5" stroke="#ff725d" stroke-width="2">
        <rect width="136" height="68" rx="12" stroke="none"/>
        <rect x="1" y="1" width="134" height="66" rx="11" fill="none"/>
      </g>
      <text id="Transacciones_financieras." data-name="Transacciones
financieras." transform="translate(464.333 722)" fill="#12263f" font-size="16" font-family="Roboto-Regular, Roboto"><tspan x="-51.93" y="0">Transacciones</tspan><tspan x="-41.109" y="24">financieras.</tspan></text>
      <path id="Trazado_873428" data-name="Trazado 873428" d="M-11986-8616.414v-179.638s-.875-99.867,35.563-127.508" transform="translate(12759.333 9596)" fill="none" stroke="#707070" stroke-width="1"/>
      <path id="Trazado_873429" data-name="Trazado 873429" d="M-11950.437-8616.414v-179.638s.875-99.867-35.563-127.508" transform="translate(12944.334 9596)" fill="none" stroke="#707070" stroke-width="1"/>
      <g id="Rectángulo_401216" data-name="Rectángulo 401216" transform="translate(691.333 979)" fill="#eff5fa" stroke="#0c66bf" stroke-width="2">
        <rect width="164" height="61" rx="12" stroke="none"/>
        <rect x="1" y="1" width="162" height="59" rx="11" fill="none"/>
      </g>
      <text id="Legalidad_de_medios_de_pago." data-name="Legalidad de medios
de pago." transform="translate(773.333 1004)" fill="#12263f" font-size="16" font-family="Roboto-Regular, Roboto"><tspan x="-73.742" y="0">Legalidad de medios</tspan><tspan x="-30.727" y="24">de pago.</tspan></text>
      <path id="Trazado_873430" data-name="Trazado 873430" d="M-12084-8878.424s13.369-82.071,124.5-82.071" transform="translate(12758.833 9595.753)" fill="none" stroke="#707070" stroke-width="1"/>
      <path id="Trazado_873431" data-name="Trazado 873431" d="M-11959.5-8878.424s-13.369-82.071-124.5-82.071" transform="translate(13049.333 9595.753)" fill="none" stroke="#707070" stroke-width="1"/>
      <g id="Rectángulo_401211" data-name="Rectángulo 401211" transform="translate(638.333 717)" fill="#eff5fa" stroke="#0c66bf" stroke-width="2">
        <rect width="76" height="36" rx="12" stroke="none"/>
        <rect x="1" y="1" width="74" height="34" rx="11" fill="none"/>
      </g>
      <g id="Rectángulo_401213" data-name="Rectángulo 401213" transform="translate(1034.333 717)" fill="#eff5fa" stroke="#0c66bf" stroke-width="2">
        <rect width="114" height="36" rx="12" stroke="none"/>
        <rect x="1" y="1" width="112" height="34" rx="11" fill="none"/>
      </g>
      <text id="Precios." transform="translate(676.333 742)" fill="#12263f" font-size="16" font-family="Roboto-Regular, Roboto"><tspan x="-28.84" y="0">Precios.</tspan></text>
      <text id="Devoluciones." transform="translate(1091.333 742)" fill="#12263f" font-size="16" font-family="Roboto-Regular, Roboto"><tspan x="-49.738" y="0">Devoluciones.</tspan></text>
      <path id="Trazado_873432" data-name="Trazado 873432" d="M-11896.449-9028s9.438,10.071,19.309,38.376" transform="translate(12758.75 9594.842)" fill="none" stroke="#707070" stroke-width="1"/>
      <g id="Rectángulo_401171" data-name="Rectángulo 401171" transform="translate(799.333 604)" fill="#eff5fa" stroke="#0c66bf" stroke-width="3">
        <rect width="166" height="69" rx="12" stroke="none"/>
        <rect x="1.5" y="1.5" width="163" height="66" rx="10.5" fill="none"/>
      </g>
      <text id="_3._Validación_de_transacciones" data-name="3. Validación de
transacciones" transform="translate(882.333 633)" fill="#12263f" font-size="18" font-family="Roboto-Black, Roboto" font-weight="800"><tspan x="-64.964" y="0">3. Validación de</tspan><tspan x="-57.072" y="25">transacciones</tspan></text>
      <g id="Grupo_1099181" data-name="Grupo 1099181" transform="translate(4 -514)">
        <g id="Rectángulo_401225" data-name="Rectángulo 401225" transform="translate(605.333 1013)" fill="#0d66bf" stroke="#0c66bf" stroke-width="3">
          <rect width="382" height="69" rx="12" stroke="none"/>
          <rect x="1.5" y="1.5" width="379" height="66" rx="10.5" fill="none"/>
        </g>
        <text id="Destrezas_en_el_punto_de_pago" data-name="Destrezas en el punto de pago" transform="translate(796.333 1057)" fill="#f3f9ff" font-size="24" font-family="Roboto-Black, Roboto" font-weight="800"><tspan x="-163.313" y="0">Destrezas en el punto de pago</tspan></text>
      </g>
      <path id="Trazado_873433" data-name="Trazado 873433" d="M-12144.6-9062.5h-96.752s-134.274.116-150.285,71.784" transform="translate(12753.934 9596)" fill="none" stroke="#707070" stroke-width="1"/>
      <path id="Trazado_873434" data-name="Trazado 873434" d="M-12466.637-9062.5h171.752s134.274.116,150.285,71.784" transform="translate(13457.933 9596)" fill="none" stroke="#707070" stroke-width="1"/>
      <g id="Rectángulo_401167" data-name="Rectángulo 401167" transform="translate(302.333 604)" fill="#ffdbd5" stroke="#ff725d" stroke-width="3">
        <rect width="128" height="44" rx="12" stroke="none"/>
        <rect x="1.5" y="1.5" width="125" height="41" rx="10.5" fill="none"/>
      </g>
      <text id="_1._Propósito" data-name="1. Propósito" transform="translate(366.333 633)" fill="#12263f" font-size="18" font-family="Roboto-Black, Roboto" font-weight="800"><tspan x="-49.553" y="0">1. Propósito</tspan></text>
      <g id="Rectángulo_401224" data-name="Rectángulo 401224" transform="translate(1237.333 604)" fill="#f2eac9" stroke="#ccb02e" stroke-width="3">
        <rect width="152" height="69" rx="12" stroke="none"/>
        <rect x="1.5" y="1.5" width="149" height="66" rx="10.5" fill="none"/>
      </g>
      <text id="_5._Técnicas_de_empaque" data-name="5. Técnicas de
empaque" transform="translate(1313.333 633)" fill="#12263f" font-size="18" font-family="Roboto-Black, Roboto" font-weight="800"><tspan x="-58.583" y="0">5. Técnicas de</tspan><tspan x="-37.529" y="25">empaque</tspan></text>
      <g id="Rectángulo_401207" data-name="Rectángulo 401207" transform="translate(544.333 1499)" fill="#fff6cc" stroke="#ffdc39" stroke-width="2">
        <rect width="158" height="39" rx="12" stroke="none"/>
        <rect x="1" y="1" width="156" height="37" rx="11" fill="none"/>
      </g>
      <g id="Rectángulo_401208" data-name="Rectángulo 401208" transform="translate(546.333 1565)" fill="#fff6cc" stroke="#ffdc39" stroke-width="2">
        <rect width="156" height="88" rx="12" stroke="none"/>
        <rect x="1" y="1" width="154" height="86" rx="11" fill="none"/>
      </g>
      <text id="Apertura_de_la_caja." data-name="Apertura de la caja." transform="translate(623.333 1525)" fill="#12263f" font-size="16" font-family="Roboto-Regular, Roboto"><tspan x="-68.664" y="0">Apertura de la caja.</tspan></text>
      <text id="Aprender_a_iniciar_las_operaciones_en_el_punto_de_pago." data-name="Aprender a iniciar
las operaciones en
el punto de pago." transform="translate(624.333 1592)" fill="#12263f" font-size="16" font-family="Roboto-Regular, Roboto"><tspan x="-62.246" y="0">Aprender a iniciar</tspan><tspan x="-66.691" y="24">las operaciones en</tspan><tspan x="-61.277" y="48">el punto de pago.</tspan></text>
      <g id="Rectángulo_401205" data-name="Rectángulo 401205" transform="translate(460.333 1314)" fill="#fff6cc" stroke="#ffdc39" stroke-width="2">
        <rect width="130" height="39" rx="12" stroke="none"/>
        <rect x="1" y="1" width="128" height="37" rx="11" fill="none"/>
      </g>
      <g id="Rectángulo_401206" data-name="Rectángulo 401206" transform="translate(447.333 1380)" fill="#fff6cc" stroke="#ffdc39" stroke-width="2">
        <rect width="156" height="109" rx="12" stroke="none"/>
        <rect x="1" y="1" width="154" height="107" rx="11" fill="none"/>
      </g>
      <text id="Base_de_la_caja." data-name="Base de la caja." transform="translate(525.333 1340)" fill="#12263f" font-size="16" font-family="Roboto-Regular, Roboto"><tspan x="-55.586" y="0">Base de la caja.</tspan></text>
      <text id="Conocer_los_procedimientos_para_gestiónales_el_dinero_en_la_caja." data-name="Conocer los
procedimientos para
gestiónales el
dinero en la caja." transform="translate(525.333 1403)" fill="#12263f" font-size="16" font-family="Roboto-Regular, Roboto"><tspan x="-42.488" y="0">Conocer los</tspan><tspan x="-73.109" y="24">procedimientos para</tspan><tspan x="-49.199" y="48">gestiónales el</tspan><tspan x="-60.09" y="72">dinero en la caja.</tspan></text>
      <g id="Rectángulo_401219" data-name="Rectángulo 401219" transform="translate(1109.333 1191)" fill="#d3edfa" stroke="#53bced" stroke-width="3">
        <rect width="166" height="69" rx="12" stroke="none"/>
        <rect x="1.5" y="1.5" width="163" height="66" rx="10.5" fill="none"/>
      </g>
      <text id="_4._Descripción_del_empaque" data-name="4. Descripción del
empaque" transform="translate(1192.333 1220)" fill="#12263f" font-size="18" font-family="Roboto-Black, Roboto" font-weight="800"><tspan x="-73.085" y="0">4. Descripción del</tspan><tspan x="-37.529" y="25">empaque</tspan></text>
      <path id="Trazado_873439" data-name="Trazado 873439" d="M-12403-8948v144.272" transform="translate(13540.333 10207)" fill="none" stroke="#707070" stroke-width="1"/>
      <path id="Trazado_873440" data-name="Trazado 873440" d="M-12403-8948v369.07" transform="translate(13639.333 10207)" fill="none" stroke="#707070" stroke-width="1"/>
      <g id="Rectángulo_401220" data-name="Rectángulo 401220" transform="translate(1100.333 1301)" fill="#d3edfa" stroke="#53bced" stroke-width="2">
        <rect width="74" height="39" rx="12" stroke="none"/>
        <rect x="1" y="1" width="72" height="37" rx="11" fill="none"/>
      </g>
      <g id="Rectángulo_401221" data-name="Rectángulo 401221" transform="translate(1060.333 1378)" fill="#d3edfa" stroke="#53bced" stroke-width="2">
        <rect width="154" height="110" rx="12" stroke="none"/>
        <rect x="1" y="1" width="152" height="108" rx="11" fill="none"/>
      </g>
      <text id="Tipos" transform="translate(1137.333 1327)" fill="#12263f" font-size="16" font-family="Roboto-Regular, Roboto"><tspan x="-19.891" y="0">Tipos</tspan></text>
      <text id="Conocer_los_diferentes_tipos_de_empaque_utilizados_en_el_punto_de_venta." data-name="Conocer los
diferentes tipos de
empaque utilizados
en el punto de venta." transform="translate(1137.333 1404)" fill="#12263f" font-size="16" font-family="Roboto-Regular, Roboto"><tspan x="-42.488" y="0">Conocer los</tspan><tspan x="-66.078" y="24">diferentes tipos de</tspan><tspan x="-69.629" y="48">empaque utilizados</tspan><tspan x="-73.461" y="72">en el punto de venta.</tspan></text>
      <g id="Rectángulo_401222" data-name="Rectángulo 401222" transform="translate(1159.333 1505)" fill="#d3edfa" stroke="#53bced" stroke-width="2">
        <rect width="154" height="64" rx="12" stroke="none"/>
        <rect x="1" y="1" width="152" height="62" rx="11" fill="none"/>
      </g>
      <g id="Rectángulo_401223" data-name="Rectángulo 401223" transform="translate(1159.333 1608)" fill="#d3edfa" stroke="#53bced" stroke-width="2">
        <rect width="154" height="161" rx="12" stroke="none"/>
        <rect x="1" y="1" width="152" height="159" rx="11" fill="none"/>
      </g>
      <text id="Normativa_y_clasificación." data-name="Normativa y
clasificación." transform="translate(1236.333 1531)" fill="#12263f" font-size="16" font-family="Roboto-Regular, Roboto"><tspan x="-42.824" y="0">Normativa y</tspan><tspan x="-46.727" y="24">clasificación.</tspan></text>
      <text id="Entender_las_reglas_y_clasificaciones_aplicables_al_empaque_de_productos_en_el_punto_de_venta." data-name="Entender las reglas
y clasificaciones
aplicables al
empaque de
productos en el
punto de venta." transform="translate(1236.333 1635)" fill="#12263f" font-size="16" font-family="Roboto-Regular, Roboto"><tspan x="-67.84" y="0">Entender las reglas</tspan><tspan x="-58.75" y="24">y clasificaciones</tspan><tspan x="-44.328" y="48">aplicables al</tspan><tspan x="-44.016" y="72">empaque de</tspan><tspan x="-54.805" y="96">productos en el</tspan><tspan x="-54.668" y="120">punto de venta.</tspan></text>
    </g>
  </g>
</svg>
