<svg id="software" xmlns="http://www.w3.org/2000/svg" width="78.501" height="78.502" viewBox="0 0 78.501 78.502">
  <path id="Trazado_874156" data-name="Trazado 874156" d="M77.558,39.251C77.558,60.928,60.878,77.5,39.2,77.5a38.072,38.072,0,0,1-9.406-.725c-.7-.176-1.507.186-2.2-.028A39.256,39.256,0,1,1,78.4,36.374C78.466,37.324,77.558,38.283,77.558,39.251Z" transform="translate(0)" fill="#0d66bf"/>
  <path id="Trazado_874157" data-name="Trazado 874157" d="M109.192,84.317a33,33,0,1,1-33-33,33,33,0,0,1,33,33Z" transform="translate(-36.572 -43.45)" fill="#53bced"/>
  <path id="Trazado_874158" data-name="Trazado 874158" d="M89.847,71.715v35.111a1.533,1.533,0,0,1-1.533,1.533H42.1a1.533,1.533,0,0,1-1.533-1.533V71.715A1.533,1.533,0,0,1,42.1,70.182H88.314A1.533,1.533,0,0,1,89.847,71.715Z" transform="translate(-34.345 -59.422)" fill="#c8e2fd"/>
  <path id="Trazado_874159" data-name="Trazado 874159" d="M33.933,108.359H31.157A1.157,1.157,0,0,1,30,107.2V71.339a1.157,1.157,0,0,1,1.157-1.157h2.777a1.157,1.157,0,0,0-1.157,1.157V107.2a1.157,1.157,0,0,0,1.157,1.157Z" transform="translate(-25.4 -59.422)" fill="#a7d0fc"/>
  <path id="Trazado_874160" data-name="Trazado 874160" d="M89.847,41.157v4.628H56.76L55.6,44.933H45.2l-1.164.852H41.707a1.143,1.143,0,0,1-1.143-1.143V41.948A1.948,1.948,0,0,1,42.512,40H88.691A1.157,1.157,0,0,1,89.847,41.157Z" transform="translate(-34.345 -33.867)" fill="#274c91"/>
  <path id="Trazado_874161" data-name="Trazado 874161" d="M33.933,40a1.157,1.157,0,0,0-1.157,1.157v4.628H30V41.157A1.157,1.157,0,0,1,31.157,40Z" transform="translate(-25.4 -33.867)" fill="#203e76"/>
  <path id="Trazado_874162" data-name="Trazado 874162" d="M60.081,112.32v27.152a.767.767,0,0,1-.767.767H46.3a.767.767,0,0,1-.767-.767V112.32a.767.767,0,0,1,.767-.767H59.315A.767.767,0,0,1,60.081,112.32Z" transform="translate(-38.553 -94.449)" fill="#a7d0fc"/>
  <path id="Trazado_874163" data-name="Trazado 874163" d="M93.92,142.146a1.15,1.15,0,0,1-1.15,1.15H89.109a1.15,1.15,0,1,1,0-2.3H92.77A1.15,1.15,0,0,1,93.92,142.146Zm-1.15,3.45H89.109a1.15,1.15,0,1,0,0,2.3H92.77a1.15,1.15,0,0,0,0-2.3Zm-3.661-20.7H92.77a1.15,1.15,0,0,0,0-2.3H89.109a1.15,1.15,0,1,0,0,2.3Zm3.661,6.9H89.109a1.15,1.15,0,1,0,0,2.3H92.77a1.15,1.15,0,1,0,0-2.3Zm0,4.6H89.109a1.15,1.15,0,1,0,0,2.3H92.77a1.15,1.15,0,1,0,0-2.3Zm0-9.2H89.109a1.15,1.15,0,1,0,0,2.3H92.77a1.15,1.15,0,1,0,0-2.3Z" transform="translate(-74.473 -103.8)" fill="#76b6fa"/>
  <path id="Trazado_874164" data-name="Trazado 874164" d="M72.462,58.562H59.736V56.624a1.533,1.533,0,0,1,1.533-1.533h9.659a1.533,1.533,0,0,1,1.533,1.533Zm29.8,33.075V64.515a.767.767,0,0,0-.767-.767H74.372a.767.767,0,0,0-.767.767V91.636a.767.767,0,0,0,.767.767h27.122A.767.767,0,0,0,102.26,91.636Zm-41.688-17h-.313a1.15,1.15,0,1,0,0,2.3h.313a1.15,1.15,0,1,0,0-2.3Z" transform="translate(-50.046 -46.644)" fill="#ff725d"/>
  <path id="Trazado_874165" data-name="Trazado 874165" d="M61.721,146.745a1.15,1.15,0,0,1-1.15,1.15h-.313a1.15,1.15,0,1,1,0-2.3h.313A1.15,1.15,0,0,1,61.721,146.745ZM60.258,124.9h.313a1.15,1.15,0,0,0,0-2.3h-.313a1.15,1.15,0,0,0,0,2.3Zm.313,16.1h-.313a1.15,1.15,0,1,0,0,2.3h.313a1.15,1.15,0,1,0,0-2.3Zm0-13.8h-.313a1.15,1.15,0,1,0,0,2.3h.313a1.15,1.15,0,1,0,0-2.3Zm0,9.2h-.313a1.15,1.15,0,1,0,0,2.3h.313a1.15,1.15,0,1,0,0-2.3Z" transform="translate(-50.045 -103.8)" fill="#4172cc"/>
  <path id="Trazado_874166" data-name="Trazado 874166" d="M164.847,168.124v35.111a1.533,1.533,0,0,1-1.533,1.533H117.1a1.533,1.533,0,0,1-1.533-1.533V168.124a1.533,1.533,0,0,1,1.533-1.533h46.217A1.533,1.533,0,0,1,164.847,168.124Z" transform="translate(-97.845 -141.049)" fill="#c8e2fd"/>
  <path id="Trazado_874167" data-name="Trazado 874167" d="M108.934,204.767h-2.777A1.157,1.157,0,0,1,105,203.611V167.747a1.157,1.157,0,0,1,1.157-1.157h2.777a1.157,1.157,0,0,0-1.157,1.157v35.864A1.157,1.157,0,0,0,108.934,204.767Z" transform="translate(-88.902 -141.048)" fill="#a7d0fc"/>
  <path id="Trazado_874168" data-name="Trazado 874168" d="M164.847,137.567v4.628H131.76l-1.164-.852H120.2l-1.164.852h-2.327a1.143,1.143,0,0,1-1.143-1.143v-2.693a1.948,1.948,0,0,1,1.948-1.948H163.69a1.157,1.157,0,0,1,1.157,1.157Z" transform="translate(-97.845 -115.495)" fill="#274c91"/>
  <path id="Trazado_874169" data-name="Trazado 874169" d="M108.933,136.409a1.157,1.157,0,0,0-1.157,1.157v4.628H105v-4.628a1.157,1.157,0,0,1,1.157-1.157Z" transform="translate(-88.901 -115.494)" fill="#203e76"/>
  <path id="Trazado_874170" data-name="Trazado 874170" d="M132.866,209.145V236.3a.767.767,0,0,1-.767.767H119.086a.767.767,0,0,1-.767-.767V209.145a.767.767,0,0,1,.767-.767H132.1A.767.767,0,0,1,132.866,209.145Z" transform="translate(-100.178 -176.429)" fill="#a7d0fc"/>
  <path id="Trazado_874171" data-name="Trazado 874171" d="M166.705,243.57a1.15,1.15,0,0,1-1.15,1.15h-3.662a1.15,1.15,0,0,1,0-2.3h3.662A1.15,1.15,0,0,1,166.705,243.57Zm-4.811-21.848h3.662a1.15,1.15,0,1,0,0-2.3h-3.662a1.15,1.15,0,1,0,0,2.3Zm3.661,16.1h-3.662a1.15,1.15,0,1,0,0,2.3h3.662a1.15,1.15,0,1,0,0-2.3Zm0-13.8h-3.662a1.15,1.15,0,0,0,0,2.3h3.662a1.15,1.15,0,0,0,0-2.3Zm0,9.2h-3.662a1.15,1.15,0,0,0,0,2.3h3.662a1.15,1.15,0,0,0,0-2.3Zm0-4.6h-3.662a1.15,1.15,0,0,0,0,2.3h3.662a1.15,1.15,0,0,0,0-2.3Z" transform="translate(-136.098 -185.78)" fill="#76b6fa"/>
  <path id="Trazado_874172" data-name="Trazado 874172" d="M145.587,154.971H132.861v-1.937a1.533,1.533,0,0,1,1.533-1.533h9.659a1.533,1.533,0,0,1,1.533,1.533Zm30.079,33.139V160.987a.767.767,0,0,0-.767-.767H147.777a.767.767,0,0,0-.767.767v27.122a.767.767,0,0,0,.767.767H174.9A.767.767,0,0,0,175.666,188.109Zm-41.159-20.446a1.15,1.15,0,0,1-1.15,1.15h-.313a1.15,1.15,0,0,1,0-2.3h.313A1.15,1.15,0,0,1,134.507,167.664Z" transform="translate(-111.672 -128.272)" fill="#6dc54a"/>
  <path id="Trazado_874173" data-name="Trazado 874173" d="M133.357,237.821h-.313a1.15,1.15,0,1,0,0,2.3h.313a1.15,1.15,0,1,0,0-2.3Zm-.313-16.1h.313a1.15,1.15,0,1,0,0-2.3h-.313a1.15,1.15,0,0,0,0,2.3Zm.313,20.7h-.313a1.15,1.15,0,1,0,0,2.3h.313a1.15,1.15,0,0,0,0-2.3Zm0-13.8h-.313a1.15,1.15,0,0,0,0,2.3h.313a1.15,1.15,0,1,0,0-2.3Zm0,4.6h-.313a1.15,1.15,0,0,0,0,2.3h.313a1.15,1.15,0,1,0,0-2.3Z" transform="translate(-111.672 -185.78)" fill="#4172cc"/>
  <path id="Trazado_874174" data-name="Trazado 874174" d="M239.788,264.108a39.321,39.321,0,0,1-.652,5.3c-.108.559-1.38.685-1.511,1.235a39.331,39.331,0,0,1-21.057,26.185c-.583.283-.021.98-.62,1.235a39.453,39.453,0,0,1-24.217,2.11c-.2-.046-.394-.677-.59-.725s-.372-.093-.557-.142a1.546,1.546,0,0,1-.019-.244V264.533A1.533,1.533,0,0,1,192.1,263h46.217A1.534,1.534,0,0,1,239.788,264.108Z" transform="translate(-161.346 -222.676)" fill="#fff5f5"/>
  <path id="Trazado_874175" data-name="Trazado 874175" d="M182.776,264.157V300.02a1.174,1.174,0,0,0,.01.151q-1.413-.326-2.786-.753V264.157A1.157,1.157,0,0,1,181.157,263h2.777A1.157,1.157,0,0,0,182.776,264.157Z" transform="translate(-152.402 -222.676)" fill="#e9f3fe"/>
  <path id="Trazado_874176" data-name="Trazado 874176" d="M239.847,236.372q0,1.123-.062,2.23H206.76l-1.164-.852H195.2l-1.164.852h-2.327a1.143,1.143,0,0,1-1.143-1.143v-2.693a1.948,1.948,0,0,1,1.948-1.948H238.69a1.157,1.157,0,0,1,1.053.677Q239.846,234.92,239.847,236.372Z" transform="translate(-161.345 -197.122)" fill="#274c91"/>
  <path id="Trazado_874177" data-name="Trazado 874177" d="M183.933,232.818a1.157,1.157,0,0,0-1.157,1.157V238.6H180v-4.628a1.157,1.157,0,0,1,1.157-1.157Z" transform="translate(-152.402 -197.122)" fill="#203e76"/>
  <path id="Trazado_874178" data-name="Trazado 874178" d="M277.339,51.318a1.157,1.157,0,1,1-1.157,1.157A1.157,1.157,0,0,1,277.339,51.318Zm-5.784,1.157a1.157,1.157,0,1,0,1.157-1.157A1.157,1.157,0,0,0,271.555,52.475Zm-4.628,0a1.157,1.157,0,1,0,1.157-1.157A1.157,1.157,0,0,0,266.927,52.475Zm20.754,14.782a1.157,1.157,0,1,0,1.157-1.157A1.157,1.157,0,0,0,287.681,67.257Zm-4.628,0a1.157,1.157,0,1,0,1.157-1.157A1.157,1.157,0,0,0,283.054,67.257Zm-4.628,0a1.157,1.157,0,1,0,1.157-1.157A1.157,1.157,0,0,0,278.426,67.257Zm21.911,13.625a1.157,1.157,0,1,0,1.157,1.157A1.157,1.157,0,0,0,300.337,80.881Zm-3.471,1.157a1.157,1.157,0,1,1-1.157-1.157A1.157,1.157,0,0,1,296.867,82.038Zm-4.628,0a1.157,1.157,0,1,1-1.157-1.157A1.157,1.157,0,0,1,292.239,82.038Z" transform="translate(-226.001 -43.45)" fill="#4172cc"/>
  <path id="Trazado_874179" data-name="Trazado 874179" d="M210.387,333.278H197.373a.767.767,0,0,1-.767-.767V305.36a.767.767,0,0,1,.767-.767h13.014a.767.767,0,0,1,.767.767v27.152a.767.767,0,0,1-.767.767Z" transform="translate(-166.462 -257.892)" fill="#a7d0fc"/>
  <path id="Trazado_874180" data-name="Trazado 874180" d="M239.032,316.787a1.15,1.15,0,0,1,1.15-1.15h3.661a1.15,1.15,0,1,1,0,2.3h-3.661A1.15,1.15,0,0,1,239.032,316.787Zm4.811,3.45h-3.661a1.15,1.15,0,0,0,0,2.3h3.661a1.15,1.15,0,1,0,0-2.3Zm0,4.6h-3.661a1.15,1.15,0,0,0,0,2.3h3.661a1.15,1.15,0,1,0,0-2.3Zm0,4.6h-3.661a1.15,1.15,0,0,0,0,2.3h3.661a1.15,1.15,0,1,0,0-2.3Zm0,4.6h-3.661a1.15,1.15,0,0,0,0,2.3h3.661a1.15,1.15,0,1,0,0-2.3Zm0,4.6h-3.661a1.15,1.15,0,0,0,0,2.3h3.661a1.15,1.15,0,1,0,0-2.3Z" transform="translate(-202.383 -267.243)" fill="#76b6fa"/>
  <path id="Trazado_874181" data-name="Trazado 874181" d="M211.644,345.637h-.313a1.15,1.15,0,1,0,0,2.3h.313a1.15,1.15,0,1,0,0-2.3Zm0,4.6h-.313a1.15,1.15,0,1,0,0,2.3h.313a1.15,1.15,0,1,0,0-2.3Zm0,4.6h-.313a1.15,1.15,0,1,0,0,2.3h.313a1.15,1.15,0,0,0,0-2.3Zm0,4.6h-.313a1.15,1.15,0,1,0,0,2.3h.313a1.15,1.15,0,1,0,0-2.3Zm0,4.6h-.313a1.15,1.15,0,1,0,0,2.3h.313a1.15,1.15,0,1,0,0-2.3Z" transform="translate(-177.955 -292.643)" fill="#4172cc"/>
  <path id="Trazado_874182" data-name="Trazado 874182" d="M223.37,249.442v1.937H210.644v-1.937a1.533,1.533,0,0,1,1.533-1.533h9.659A1.533,1.533,0,0,1,223.37,249.442Zm32.375,7.187a39.128,39.128,0,0,1-9.341,18.752c-.108.121-.775.056-.885.175q-.764.83-1.575,1.615c-.113.109.331.4.217.511q-1.278,1.208-2.662,2.3c-.21.166-.906.1-1.12.265q-1.075.813-2.207,1.554c-.131.086.221.4.089.481a39.138,39.138,0,0,1-5.7,3h-6.778a.767.767,0,0,1-.767-.767V257.4a.767.767,0,0,1,.767-.767Zm-45.564,2.813a1.15,1.15,0,0,1,1.15-1.15h.313a1.15,1.15,0,1,1,0,2.3h-.313A1.15,1.15,0,0,1,210.181,259.443Z" transform="translate(-177.956 -209.899)" fill="#ffb92f"/>
  <path id="Trazado_874183" data-name="Trazado 874183" d="M381.786,431.693h4.033a39.351,39.351,0,0,1-3.238,2.3h-.794a1.15,1.15,0,1,1,0-2.3Zm0-4.6a1.15,1.15,0,1,0,0,2.3h6.695q1.168-1.1,2.243-2.3Z" transform="translate(-322.276 -361.61)" fill="#ffa90b"/>
  <path id="Trazado_874184" data-name="Trazado 874184" d="M330.636,428.243a1.15,1.15,0,0,1,1.15-1.15h2.3a1.15,1.15,0,0,1,0,2.3h-2.3A1.15,1.15,0,0,1,330.636,428.243Zm1.15,5.75h2.3a1.15,1.15,0,0,0,0-2.3h-2.3a1.15,1.15,0,1,0,0,2.3Z" transform="translate(-279.942 -361.61)" fill="#f29500"/>
  <path id="Trazado_874185" data-name="Trazado 874185" d="M340.757,325.76,336.6,336.2a1.15,1.15,0,0,1-2.137-.85l4.154-10.444a1.15,1.15,0,0,1,2.137.85Zm7.67,4.109-2.789-4.627a1.15,1.15,0,0,0-1.97,1.187l2.438,4.045-2.449,4.228a1.15,1.15,0,1,0,1.99,1.153l2.789-4.816A1.149,1.149,0,0,0,348.426,329.869Zm-18.969.605,2.438-4.045a1.15,1.15,0,0,0-1.97-1.187l-2.789,4.627a1.149,1.149,0,0,0-.01,1.17l2.789,4.816a1.15,1.15,0,0,0,1.99-1.153Z" transform="translate(-276.839 -274.48)" fill="#fff"/>
</svg>
